<?xml version="1.0" encoding="UTF-8"?>
<svg id="Layer_2" data-name="Layer 2" xmlns="http://www.w3.org/2000/svg" viewBox="0 0 744.77 425.05">
  <defs>
    <style>
      .cls-1 {
        opacity: .34;
      }

      .cls-2 {
        fill: #246db6;
        stroke-width: 0px;
      }
    </style>
  </defs>
  <g id="Layer_1-2" data-name="Layer 1">
    <g class="cls-1">
      <g>
        <g>
          <path class="cls-2" d="m248.79,308.15s15.64-.6,19.47,3.76c0,0-3.66,5.5-16.29,9.41l2.56,4.17-3.83,8.97s1.18-12.52-2.29-12.72c0,0-9.08,3.46-33.96,2.1-24.87-1.36-31.53-1.38-33.31-.04,0,0,16.98-5.49,30.4-6.08,13.43-.63,25.96-8.34,37.25-9.55Z"/>
          <path class="cls-2" d="m235.65,297.99s7.19,5.18,10.37,13.9l2.14-1.6s-2.11-7.29-12.51-12.3Z"/>
        </g>
        <g>
          <path class="cls-2" d="m412.64,363.37s9.39-2.89,12.42-.86c0,0-1.33,3.94-8.37,8.34l2.24,2.12-.88,6.06s-1.3-7.8-3.45-7.35c0,0-4.94,3.56-20.28,6.73-15.33,3.18-19.37,4.24-20.25,5.35,0,0,9.44-6.07,17.49-8.61,8.04-2.52,14.42-9.23,21.09-11.79Z"/>
          <path class="cls-2" d="m403.03,359.32s5.19,1.98,8.52,6.75l1.04-1.32s-2.47-4.07-9.56-5.43Z"/>
        </g>
        <path class="cls-2" d="m298.41,351.49s-7.99-8.45-28.61-10.79c-20.61-2.33-50.64-7.63-59.16-16.79-8.52-9.16-12.78-12.63-15.87-21.97,0,0-2.4,1.24-.81,5.6,1.59,4.35,17.9,32.1,50.5,46.01,32.61,13.91,53.42-.55,53.95-2.06Z"/>
        <path class="cls-2" d="m275.76,299.98s-4.38-8.05-19.58-13.95c-15.2-5.92-36.96-15.97-41.59-24.64-4.64-8.68-7.18-12.15-7.65-19.88,0,0-2.08.46-1.74,4.09.34,3.64,7.17,27.98,29.14,45.1,21.98,17.11,40.7,10.3,41.42,9.27Z"/>
        <path class="cls-2" d="m122.7,204.11s-.49-9.12-11.67-20.99c-11.17-11.87-26.51-30.32-26.96-40.12-.45-9.84-1.23-14.09,1.65-21.25,0,0-2.07-.48-3.34,2.95-1.26,3.42-5.56,28.35,6.92,53.25,12.48,24.91,32.31,26.79,33.4,26.16Z"/>
        <path class="cls-2" d="m290.75,391.23s-4.44-2.02-12.8.31c-8.36,2.34-20.84,5-25.59,2.79-4.76-2.23-6.95-2.89-9.62-6.02,0,0-.74.85.57,2.29,1.32,1.45,12,9.63,26.84,9.91,14.83.28,20.64-8.59,20.61-9.28Z"/>
        <path class="cls-2" d="m342.15,338.77s-5.59-9.71-19.44-12.65c-13.86-2.97-38.12-4.24-56.52-2.13l-7.29-.09s1.59,2.12,5.24,3.29c3.64,1.17,25.31,9.36,37.48,13.02,12.17,3.67,35.8,7.06,40.53-1.44Z"/>
        <path class="cls-2" d="m225.91,366.09s-1.17-12.19-13.63-21.44c-12.48-9.24-36.06-21.52-55.36-27.78l-7.22-3.42s.62,2.86,3.72,5.67c3.12,2.81,20.99,20.82,31.45,30,10.46,9.19,32.45,23.31,41.04,16.96Z"/>
        <path class="cls-2" d="m48.84,216.2s3.83-11.67-3.9-25.1c-7.72-13.46-24.43-34.18-39.59-47.63L.09,137.42s-.57,2.88,1.15,6.69c1.72,3.82,10.88,27.49,16.8,40.09,5.91,12.6,20.4,34.36,30.8,31.99Z"/>
        <path class="cls-2" d="m188.73,310.84s-2.65-12.12-16.29-19.92c-13.67-7.78-38.88-17.29-59.05-21.25l-7.66-2.54s.96,2.8,4.43,5.24c3.46,2.45,23.6,18.41,35.23,26.38,11.64,7.96,35.47,19.51,43.34,12.1Z"/>
        <path class="cls-2" d="m147.86,351.81s2.24-7.74-3.14-16.37c-5.37-8.65-16.8-21.84-27.04-30.32l-3.58-3.82s-.31,1.89.9,4.35c1.2,2.47,7.75,17.77,11.92,25.89,4.16,8.12,14.17,22.05,20.93,20.27Z"/>
        <path class="cls-2" d="m392.9,362.98s-7.78-8.04-21.94-7.52c-14.17.52-38.01,5.22-55.33,11.74l-7.09,1.68s2.07,1.68,5.88,1.91c3.82.24,26.85,2.89,39.52,3.48,12.72.58,36.46-1.88,38.95-11.3Z"/>
        <g>
          <path class="cls-2" d="m137.79,264.61s-2.94-11.38-20.08-23.54c-17.12-12.13-41.12-31.51-44.2-43.8-3.05-12.27-5.14-17.43-3.3-27.22,0,0-2.75-.09-3.46,4.57-.72,4.62.17,37.2,22.24,65.45,22.07,28.26,47.59,25.62,48.8,24.54Z"/>
          <path class="cls-2" d="m77.77,164.99c-3.12,2.37-5.45,5.14-9.2,6.47-2.22.77-3.42.63-5.32-.46-.94-.55-4.42-1.99-4.63-2.78.97.48,2.62.47,3.78.39,1.66-.13,3.78-.45,5.44-.74,1.64-.3,2.91-.43,4.51-.63,1.18-.13,4.04-1.46,4.79-2.32"/>
        </g>
        <path class="cls-2" d="m20.46,214.5c-.88-1.21-2.05-2.52-1.8-4.07.17-1.17,1.5-2.64,2.05-3.57.66-1.16,1.95-2.97,2.48-4.37.61-1.61-.57-2.77,0-4.35-2.09,1.12-2.83,2.71-3.81,4.66-.87,1.8-2.64,3.67-4.04,5-.66.63-1.71,1.44-2.51,1.89-.97.54-2.03.47-2.8.67-1.73.44-3.71,1.35-5.3,1.54,0,.3.14.51.42.62,2.07-1.23,6.41-1.73,8.7-.74,1.96.84,3.55,5.98,5.88,3.25"/>
        <path class="cls-2" d="m83.64,282.66s-8.62,2.57-14.58-2.41c-5.93-5-13.22-9.53-13.22-9.53,0,0-10.93.95-17.41-2.52,0,0,8.81.63,13.24-1.58,0,0-28.48-33.62-33.97-50.6l.71-4.04s16.96,13.56,24.87,18.19c7.91,4.62,19.89,11.76,25.83,21.19,0,0,6.67-6.66,6.51-14.3,0,0,.79,9.96-4.3,16.53,0,0,19.26,16.11,12.32,29.08Z"/>
        <path class="cls-2" d="m187.91,264.08s18.73,24.27,13.47,25.41c-5.26,1.15-23.45-9.09-23.45-9.09,0,0-4.71,6.3-12.02,10.64,0,0,7.93-8.69,7.57-12.87,0,0-19.52-16.47-28.03-30.08-8.52-13.62-22.09-22.87-25.11-32.82,0,0,18.47,17.27,26.55,22.87,8.08,5.62,16.5,13.18,23.61,16.75,7.11,3.55,13.41,6.06,13.41,6.06,0,0,3.83-6.74-.41-21.33,0,0,8.87,8.89,4.41,24.46Z"/>
        <path class="cls-2" d="m109.85,273.88s3.84,10.59,1.88,10.41c-1.97-.18-7.2-5.81-7.2-5.81,0,0-2.37,1.68-5.39,2.4,0,0,3.74-2.16,4.08-3.67,0,0-4.99-7.96-6.46-13.67-1.45-5.71-5.17-10.48-5.11-14.3,0,0,4.54,8.11,6.74,10.97,2.21,2.88,4.31,6.46,6.39,8.5,2.09,2.04,4.02,3.62,4.02,3.62,0,0,2.1-1.95,2.23-7.51,0,0,2.12,4.1-1.18,9.05Z"/>
        <g>
          <path class="cls-2" d="m49.27,178.6s2.98-8.65-2.92-23.86c-5.91-15.19-13.2-38.03-9.92-47.31,3.25-9.27,4.13-13.5,9.5-19.06,0,0-1.74-1.24-4.19,1.47-2.46,2.7-15.83,24.19-13.6,51.95,2.21,27.77,19.87,36.99,21.13,36.81Z"/>
          <path class="cls-2" d="m29.44,139.14l-7.78-5.41s3.51,8.59,7.1,13.4c3.6,4.79.68-7.99.68-7.99Z"/>
        </g>
      </g>
      <g>
        <g>
          <path class="cls-2" d="m652.4,176.26s-.6-15.64,3.76-19.47c0,0,5.5,3.66,9.41,16.29l4.17-2.56,8.97,3.83s-12.52-1.18-12.72,2.28c0,0,3.46,9.08,2.1,33.96-1.36,24.87-1.38,31.53-.04,33.31,0,0-5.49-16.98-6.08-30.4-.63-13.43-8.34-25.96-9.55-37.25Z"/>
          <path class="cls-2" d="m642.24,189.4s5.18-7.19,13.9-10.37l-1.6-2.14s-7.29,2.11-12.3,12.51Z"/>
        </g>
        <g>
          <path class="cls-2" d="m707.62,12.42s-2.89-9.39-.86-12.42c0,0,3.94,1.33,8.34,8.37l2.12-2.24,6.06.88s-7.8,1.3-7.35,3.45c0,0,3.56,4.94,6.73,20.28,3.18,15.33,4.24,19.37,5.35,20.25,0,0-6.07-9.44-8.61-17.49-2.52-8.04-9.23-14.42-11.79-21.09Z"/>
          <path class="cls-2" d="m703.57,22.02s1.98-5.19,6.75-8.52l-1.32-1.04s-4.07,2.47-5.43,9.56Z"/>
        </g>
        <path class="cls-2" d="m695.74,126.64s-8.45,7.99-10.79,28.61c-2.33,20.61-7.63,50.64-16.79,59.16-9.16,8.52-12.63,12.78-21.97,15.87,0,0,1.24,2.4,5.6.81,4.35-1.59,32.1-17.9,46.01-50.5,13.91-32.61-.55-53.42-2.06-53.95Z"/>
        <path class="cls-2" d="m644.23,149.29s-8.05,4.38-13.95,19.58c-5.92,15.2-15.97,36.96-24.64,41.59-8.68,4.64-12.15,7.18-19.88,7.65,0,0,.46,2.08,4.09,1.74,3.64-.34,27.98-7.17,45.1-29.14,17.11-21.98,10.3-40.7,9.27-41.42Z"/>
        <path class="cls-2" d="m548.36,302.36s-9.12.49-20.99,11.67c-11.87,11.17-30.32,26.51-40.12,26.96-9.84.45-14.09,1.23-21.25-1.65,0,0-.48,2.07,2.95,3.34,3.42,1.26,28.35,5.56,53.25-6.92,24.91-12.48,26.79-32.31,26.16-33.4Z"/>
        <path class="cls-2" d="m735.48,134.3s-2.02,4.44.31,12.8c2.34,8.36,5,20.84,2.79,25.59-2.23,4.76-2.89,6.95-6.02,9.62,0,0,.85.74,2.29-.57,1.45-1.32,9.63-12,9.91-26.84.28-14.83-8.59-20.64-9.28-20.61Z"/>
        <path class="cls-2" d="m683.02,82.9s-9.71,5.59-12.65,19.44c-2.97,13.86-4.24,38.12-2.13,56.52l-.09,7.29s2.12-1.59,3.29-5.24c1.17-3.64,9.36-25.31,13.02-37.48,3.67-12.17,7.06-35.8-1.44-40.53Z"/>
        <path class="cls-2" d="m710.34,199.14s-12.19,1.17-21.44,13.63c-9.24,12.48-21.52,36.06-27.78,55.36l-3.42,7.22s2.86-.62,5.67-3.72c2.81-3.12,20.82-20.99,30-31.45,9.19-10.46,23.31-32.45,16.96-41.04Z"/>
        <path class="cls-2" d="m560.45,376.21s-11.67-3.83-25.1,3.9c-13.46,7.72-34.18,24.43-47.63,39.59l-6.04,5.26s2.88.57,6.69-1.15c3.82-1.72,27.49-10.88,40.09-16.8,12.6-5.91,34.36-20.4,31.99-30.8Z"/>
        <path class="cls-2" d="m655.09,236.32s-12.12,2.65-19.92,16.29c-7.78,13.67-17.29,38.88-21.25,59.05l-2.54,7.66s2.8-.96,5.24-4.43c2.45-3.46,18.41-23.6,26.38-35.23,7.96-11.64,19.51-35.47,12.1-43.34Z"/>
        <path class="cls-2" d="m696.06,277.19s-7.74-2.24-16.37,3.14c-8.65,5.37-21.84,16.8-30.32,27.04l-3.82,3.58s1.89.31,4.35-.9c2.47-1.2,17.77-7.75,25.89-11.92,8.12-4.16,22.05-14.17,20.27-20.93Z"/>
        <path class="cls-2" d="m707.23,32.15s-8.04,7.78-7.52,21.94c.52,14.17,5.22,38.01,11.74,55.33l1.68,7.09s1.68-2.07,1.91-5.88c.24-3.82,2.89-26.85,3.48-39.52.58-12.72-1.88-36.46-11.3-38.95Z"/>
        <g>
          <path class="cls-2" d="m608.86,287.26s-11.38,2.94-23.54,20.08c-12.13,17.12-31.51,41.12-43.8,44.2-12.27,3.05-17.43,5.14-27.22,3.3,0,0-.09,2.75,4.57,3.46,4.62.72,37.2-.17,65.45-22.24,28.26-22.07,25.62-47.59,24.54-48.8Z"/>
          <path class="cls-2" d="m509.24,347.28c2.37,3.12,5.14,5.45,6.47,9.2.77,2.22.63,3.42-.46,5.32-.55.94-1.99,4.42-2.78,4.63.48-.97.47-2.62.39-3.78-.13-1.66-.45-3.78-.74-5.44-.3-1.64-.43-2.91-.63-4.51-.13-1.18-1.46-4.04-2.32-4.79"/>
        </g>
        <path class="cls-2" d="m558.75,404.59c-1.21.88-2.52,2.05-4.07,1.8-1.17-.17-2.64-1.5-3.57-2.05-1.16-.66-2.97-1.95-4.37-2.48-1.61-.61-2.77.57-4.35,0,1.12,2.09,2.71,2.83,4.66,3.81,1.8.87,3.67,2.64,5,4.04.63.66,1.44,1.71,1.89,2.51.54.97.47,2.03.67,2.8.44,1.73,1.35,3.71,1.54,5.3.3,0,.51-.14.62-.42-1.23-2.07-1.73-6.41-.74-8.7.84-1.96,5.98-3.55,3.25-5.88"/>
        <path class="cls-2" d="m626.91,341.41s2.57,8.62-2.41,14.58c-5,5.93-9.53,13.22-9.53,13.22,0,0,.95,10.93-2.52,17.41,0,0,.63-8.81-1.58-13.24,0,0-33.62,28.48-50.6,33.97l-4.04-.71s13.56-16.96,18.19-24.87c4.62-7.91,11.76-19.89,21.19-25.83,0,0-6.66-6.67-14.3-6.51,0,0,9.96-.79,16.53,4.3,0,0,16.11-19.26,29.08-12.32Z"/>
        <path class="cls-2" d="m608.33,237.14s24.27-18.73,25.41-13.47c1.15,5.26-9.09,23.45-9.09,23.45,0,0,6.3,4.71,10.64,12.02,0,0-8.69-7.93-12.87-7.57,0,0-16.47,19.52-30.08,28.03-13.62,8.52-22.87,22.09-32.82,25.11,0,0,17.27-18.47,22.87-26.55,5.62-8.08,13.18-16.5,16.75-23.61,3.55-7.11,6.06-13.41,6.06-13.41,0,0-6.74-3.83-21.33.41,0,0,8.89-8.87,24.46-4.41Z"/>
        <path class="cls-2" d="m618.13,315.2s10.59-3.84,10.41-1.88c-.18,1.97-5.81,7.2-5.81,7.2,0,0,1.68,2.37,2.4,5.39,0,0-2.16-3.74-3.67-4.08,0,0-7.96,4.99-13.67,6.46-5.71,1.45-10.48,5.17-14.3,5.11,0,0,8.11-4.54,10.97-6.74,2.88-2.21,6.46-4.31,8.5-6.39,2.04-2.09,3.62-4.02,3.62-4.02,0,0-1.95-2.1-7.51-2.23,0,0,4.1-2.12,9.05,1.18Z"/>
        <g>
          <path class="cls-2" d="m522.86,375.78s-8.65-2.98-23.86,2.92c-15.19,5.91-38.03,13.2-47.31,9.92-9.27-3.25-13.5-4.13-19.06-9.5,0,0-1.24,1.74,1.47,4.19,2.7,2.46,24.19,15.83,51.95,13.6,27.77-2.21,36.99-19.87,36.81-21.13Z"/>
          <path class="cls-2" d="m483.39,395.62l-5.41,7.78s8.59-3.51,13.4-7.1c4.79-3.6-7.99-.68-7.99-.68Z"/>
        </g>
      </g>
    </g>
  </g>
</svg>