<?xml version="1.0" encoding="UTF-8"?>
<svg id="Layer_2" data-name="Layer 2" xmlns="http://www.w3.org/2000/svg" xmlns:xlink="http://www.w3.org/1999/xlink" viewBox="0 0 311.71 150.18">
  <defs>
    <style>
      .cls-1 {
        opacity: .1;
      }

      .cls-1, .cls-2, .cls-3, .cls-4 {
        isolation: isolate;
      }

      .cls-1, .cls-2, .cls-3, .cls-4, .cls-5, .cls-6, .cls-7, .cls-8, .cls-9, .cls-10, .cls-11 {
        stroke-width: 0px;
      }

      .cls-1, .cls-10 {
        fill: #204c77;
      }

      .cls-2, .cls-3 {
        opacity: .3;
      }

      .cls-2, .cls-5 {
        fill: #a1b5c9;
      }

      .cls-3, .cls-4, .cls-11 {
        fill: #fff;
      }

      .cls-4 {
        opacity: .4;
      }

      .cls-12 {
        opacity: .2;
      }

      .cls-6 {
        fill: #3680c9;
      }

      .cls-7 {
        fill: #193c63;
      }

      .cls-8 {
        fill: #0b1a28;
      }

      .cls-9 {
        fill: #22507d;
      }

      .cls-13 {
        filter: url(#outer-glow-1);
      }
    </style>
    <filter id="outer-glow-1" filterUnits="userSpaceOnUse">
      <feOffset dx="0" dy="0"/>
      <feGaussianBlur result="blur" stdDeviation="10.29"/>
      <feFlood flood-color="#000" flood-opacity=".5"/>
      <feComposite in2="blur" operator="in"/>
      <feComposite in="SourceGraphic"/>
    </filter>
  </defs>
  <g id="Layer_1-2" data-name="Layer 1">
    <g class="cls-13">
      <path class="cls-10" d="m151.22,116.86c-37.74-8.11-22.33-35.9,21.86-61.98C217.28,28.79,192.33-5.25,211.69.68c19.36,5.93,93.49,122.01,27.08,126.03-25.68,1.56-49.81-1.74-87.55-9.85Z"/>
      <g class="cls-12">
        <path class="cls-6" d="m170.06,65.31c20.9-12.34,26.33-26.45,28.31-37.28-3.58,8.66-10.61,18.19-25.28,26.85-27.27,16.1-43.52,32.83-43.15,45.19,5.85-10.59,19.93-22.85,40.13-34.77h0Zm38.61-54.2c14.19,4.35,57.77,67.88,53.87,103.07C279.4,83.18,227.44,5.5,211.69.68c-8.25-2.52-8.46,2.21-9.39,10.49,1.29-.92,3.25-1.01,6.37-.06h0Z"/>
      </g>
      <path class="cls-7" d="m235.01,90.25c-27.01,3.19-49.01-3.79-100.56-1.18-.42.02-.81.04-1.23.07-7.37,12.82-2.78,23.27,18,27.73,37.74,8.11,61.87,11.4,87.55,9.85,22.17-1.34,28.63-15.2,26.74-33.26-11.14-2.83-22.3-4.17-30.5-3.21h0Z"/>
      <path class="cls-9" d="m309.37,132.88c14.78-17.64-44.24-39.45-71.25-36.26-27.01,3.19-49.01-3.79-100.56-1.18-51.54,2.61-87.41,6.89-110.65-14.17C3.67,60.21-2.16,41.75.65,54.08c2.81,12.34,25.54,53.01,66.1,60.58,40.56,7.57,68.67,11.23,120.24,23.25,51.57,12.03,99.56,22.2,122.38-5.04h0Z"/>
      <path class="cls-7" d="m236.36,100.12c25.03-2.95,77.52,15.56,73.31,32.33,13.5-17.56-44.76-39-71.55-35.83-27.01,3.19-49.01-3.79-100.56-1.18-51.54,2.61-87.41,6.89-110.65-14.17C3.67,60.21-2.16,41.75.65,54.08c.26,1.16.76,2.64,1.38,4.25,3.96,5.65,11.26,15.69,23.12,26.44,23.24,21.06,59.1,16.78,110.65,14.17,51.54-2.61,73.55,4.37,100.56,1.18h0Z"/>
      <path class="cls-5" d="m186.99,137.92c51.57,12.03,99.56,22.2,122.38-5.04,2.83-3.38,2.94-6.9,1.1-10.38-19.15,19.71-59.33,11.99-112.87-4-63.25-18.89-84.03,1.14-134.26-12.65C29.98,96.7,10.32,72.93.21,52c.11.57.25,1.24.44,2.08,2.81,12.34,25.54,53.01,66.1,60.58,40.56,7.57,68.67,11.23,120.24,23.25h0Z"/>
      <path class="cls-5" d="m186.99,137.92c51.57,12.03,99.56,22.2,122.38-5.04,2.83-3.38,2.94-6.9,1.1-10.38-19.15,19.71-59.33,11.99-112.87-4-63.25-18.89-84.03,1.14-134.26-12.65C29.98,96.7,10.32,72.93.21,52c.11.57.25,1.24.44,2.08,2.81,12.34,25.54,53.01,66.1,60.58,40.56,7.57,68.67,11.23,120.24,23.25h0Z"/>
      <path class="cls-4" d="m66.19,111.35C27.83,104.2,5.45,67.47.75,53.06c-.18-.35-.37-.71-.54-1.06.11.57.25,1.24.44,2.08,2.81,12.34,25.54,53.01,66.1,60.58,40.56,7.57,68.67,11.23,120.24,23.25,51.57,12.03,99.56,22.2,122.38-5.04,2.4-2.86,2.75-5.83,1.71-8.78-.08,1.85-.77,3.68-2.27,5.47-22.82,27.24-70.8,17.06-122.38,5.04-51.57-12.03-79.68-15.68-120.24-23.25h0Z"/>
      <path class="cls-5" d="m236.97,130.68s-58.38-11.77-114.36-13.9c-55.98-2.13-44.32-4.67-40.28-7.01,4.05-2.34,15.97-26.54,30.91-59.58,14.95-33.05,27.57-47.79,44.25-20.21,16.68,27.59,39.06,82.11,79.47,100.7h0Z"/>
      <path class="cls-3" d="m232.03,131.27s-28.06-16.4-48.62-42.1c-20.56-25.7-27.74-63.25-35.24-67.5-7.51-4.25-8.97,18.55,13.09,58.91,22.07,40.36,70.77,50.7,70.77,50.7h0Z"/>
      <path class="cls-8" d="m292.24,116.4c1.59-1.34,3.93-1.09,5.22.58.02.02.03.04.05.06,1.26,1.69.98,4.12-.64,5.44-1.61,1.31-3.95,1-5.21-.69-1.24-1.67-.99-4.06.58-5.39Z"/>
      <path class="cls-11" d="m293.37,116.92c.38.03.66.38.63.77,0,.02,0,.03,0,.05-.05.39-.4.66-.78.6-.37-.06-.63-.42-.58-.81.05-.37.37-.64.73-.61Z"/>
      <path class="cls-1" d="m105.81,69.57c-5.74,15.65-16.25,43.55-10.29,41.03,5.96-2.51,29.97-40.34,36.06-75.33,4.08-23.44-20.03,18.64-25.77,34.29Z"/>
      <path class="cls-2" d="m220.86,48.68c1.09-.04,2.01,1.17,2.07,2.7.05,1.53-.78,2.8-1.87,2.84-1.09.04-2.01-1.17-2.07-2.7-.05-1.53.78-2.8,1.87-2.84Zm8.02,33.7c1.09-.04,2.01,1.17,2.07,2.7.05,1.53-.78,2.8-1.87,2.84s-2.01-1.17-2.07-2.7c-.05-1.53.78-2.8,1.87-2.84Zm20.71,32.7c-1.43-.32-2.41-1.48-2.19-2.59.22-1.11,1.57-1.75,3-1.43s2.41,1.48,2.19,2.59c-.22,1.11-1.57,1.75-3,1.43h0Zm33.45,10.3c-1.43-.32-2.41-1.48-2.19-2.59.23-1.11,1.57-1.75,3-1.43,1.43.32,2.41,1.48,2.19,2.59-.22,1.11-1.57,1.75-3,1.43h0Zm-53.67-15.67c-1.43-.32-2.42-1.48-2.19-2.59.22-1.11,1.57-1.75,3-1.43s2.41,1.48,2.19,2.59-1.57,1.75-3,1.43h0Zm37.18.56c-1.43-.32-2.42-1.48-2.19-2.59.22-1.11,1.57-1.75,3-1.43s2.41,1.48,2.19,2.59c-.22,1.11-1.57,1.75-3,1.43h0Zm-43.67,8.67c-1.43-.32-2.41-1.48-2.19-2.59.22-1.11,1.57-1.75,3-1.43s2.42,1.48,2.19,2.59c-.22,1.11-1.57,1.75-3,1.43h0Zm-152.86-17.81c.23-1.11,1.57-1.75,3-1.43s2.41,1.48,2.19,2.59c-.23,1.11-1.57,1.75-3,1.43-1.43-.32-2.42-1.48-2.19-2.59Zm158.72-57.86c.53-.02.97.57,1,1.31.03.74-.38,1.35-.9,1.37-.53.02-.97-.57-1-1.3-.03-.74.38-1.35.9-1.37Zm15.05,13.49c.53-.02.97.57,1,1.3.03.74-.38,1.35-.9,1.37-.52.02-.97-.57-1-1.3-.03-.74.38-1.35.9-1.37Zm11.13,27.43c.52-.02.97.57,1,1.3s-.38,1.35-.9,1.37c-.53.02-.97-.57-1-1.3-.03-.74.38-1.35.9-1.37Zm-59.6-29.7c.53-.02.97.57,1,1.3s-.38,1.35-.9,1.37c-.53.02-.97-.57-1-1.3-.03-.74.38-1.35.9-1.37Zm10.95-6.17c.53-.02.97.57,1,1.31.03.74-.38,1.35-.9,1.37-.52.02-.97-.57-1-1.31-.03-.74.38-1.35.9-1.37Zm3.02-18.97c.52-.02.97.57,1,1.31.03.74-.38,1.35-.9,1.37-.53.02-.97-.57-1-1.31-.03-.74.38-1.35.9-1.37Zm-25.39,28.23c.52-.02.97.57,1,1.3.03.74-.38,1.35-.9,1.37-.52.02-.97-.57-1-1.3-.03-.74.38-1.35.9-1.37Zm34.93,11.77c.53-.02.97.57,1,1.31.03.74-.38,1.35-.9,1.37-.53.02-.97-.57-1-1.3-.03-.74.38-1.35.9-1.37Zm47.24,52.44c.18-.51.87-.72,1.53-.46.66.26,1.06.88.87,1.4-.18.51-.87.72-1.53.46-.66-.26-1.06-.88-.87-1.4Zm-18.5-18.09c.18-.51.87-.72,1.53-.46.66.26,1.06.88.87,1.4-.18.51-.87.72-1.53.46-.66-.26-1.06-.88-.87-1.4Zm4.64,19.51c.18-.51.87-.72,1.53-.46.66.26,1.06.88.87,1.4-.18.51-.87.72-1.53.46-.66-.26-1.06-.88-.87-1.4Zm-44.52-24.11c.18-.51.87-.72,1.53-.46s1.06.88.87,1.4c-.18.51-.87.72-1.53.46-.66-.26-1.06-.88-.87-1.4Zm-148.67,2.21c.18-.51.87-.72,1.53-.46.66.26,1.06.88.87,1.4-.18.51-.87.72-1.53.46-.66-.26-1.06-.88-.87-1.4Zm-13.22-7.54c.18-.51.87-.72,1.53-.46s1.06.88.87,1.4c-.18.51-.87.72-1.53.46-.66-.26-1.06-.88-.87-1.4Zm36.86,7.8c.18-.51.87-.72,1.53-.46s1.06.88.87,1.4c-.18.51-.87.72-1.53.46-.66-.26-1.06-.88-.87-1.4Zm115.84-67.8c1.09-.04,2.01,1.17,2.07,2.7.06,1.53-.78,2.8-1.87,2.84-1.09.04-2.01-1.17-2.07-2.7-.06-1.53.78-2.8,1.87-2.84Zm28.43-12.65c1.09-.04,2.01,1.17,2.07,2.7.05,1.53-.78,2.8-1.87,2.84-1.09.04-2.01-1.17-2.07-2.7-.05-1.53.78-2.8,1.87-2.84Zm-32.11,55.62c1.09-.04,2.01,1.17,2.07,2.7s-.78,2.8-1.87,2.84c-1.09.04-2.01-1.17-2.07-2.7-.05-1.53.78-2.8,1.87-2.84Zm44.18-6.36c1.09-.04,2.01,1.17,2.07,2.7.05,1.53-.78,2.8-1.87,2.84-1.09.04-2.01-1.17-2.07-2.7-.05-1.53.78-2.8,1.87-2.84Zm-31.55-52.35c1.09-.04,2.01,1.17,2.07,2.7.05,1.53-.78,2.8-1.87,2.84-1.09.04-2.01-1.17-2.07-2.7-.05-1.53.78-2.8,1.87-2.84Z"/>
    </g>
  </g>
</svg>