<?xml version="1.0" encoding="UTF-8"?>
<svg id="Layer_2" data-name="Layer 2" xmlns="http://www.w3.org/2000/svg" viewBox="0 0 537.33 266.07">
  <defs>
    <style>
      .cls-1 {
        opacity: .1;
      }

      .cls-1, .cls-2, .cls-3, .cls-4 {
        isolation: isolate;
      }

      .cls-1, .cls-2, .cls-3, .cls-4, .cls-5, .cls-6, .cls-7, .cls-8, .cls-9, .cls-10, .cls-11 {
        stroke-width: 0px;
      }

      .cls-1, .cls-10 {
        fill: #204c77;
      }

      .cls-2, .cls-3 {
        opacity: .3;
      }

      .cls-2, .cls-5 {
        fill: #a1b5c9;
      }

      .cls-3, .cls-4, .cls-11 {
        fill: #fff;
      }

      .cls-4 {
        opacity: .4;
      }

      .cls-12 {
        opacity: .2;
      }

      .cls-6 {
        fill: #3680c9;
      }

      .cls-7 {
        fill: #193c63;
      }

      .cls-8 {
        fill: #0b1a28;
      }

      .cls-9 {
        fill: #22507d;
      }
    </style>
  </defs>
  <g id="Layer_1-2" data-name="Layer 1">
    <g>
      <path class="cls-10" d="m258.46,199.33c-65.15-17-36.18-64.25,42.8-106.34C380.24,50.89,339.36-10.32,372.64,1.48c33.28,11.8,153.64,219.69,37.62,221.66-44.87.76-86.66-6.81-151.81-23.81Z"/>
      <g class="cls-12">
        <path class="cls-6" d="m295.2,110.93c37.36-19.91,47.89-44.09,52.15-62.81-6.9,14.82-19.87,30.89-46.09,44.87-48.74,25.98-78.33,53.89-78.62,75.47,11-18.01,36.47-38.29,72.56-57.53h0Zm71.39-91.51c24.4,8.65,95.51,122.66,86.03,183.69,31.74-52.74-52.91-192.03-79.98-201.63-14.17-5.03-14.9,3.22-17.16,17.56,2.32-1.5,5.74-1.52,11.1.38h0Z"/>
      </g>
      <path class="cls-7" d="m406.47,159.31c-47.3,3.5-85.11-10.33-175.12-9.69-.73,0-1.42.02-2.15.02-13.82,21.79-6.61,40.33,29.26,49.69,65.15,17,106.94,24.57,151.81,23.81,38.74-.66,51.04-24.32,49.11-55.92-19.2-5.77-38.54-8.96-52.9-7.9h0Z"/>
      <path class="cls-9" d="m532.8,239.25c27.09-29.61-74.1-72.09-121.4-68.59-47.3,3.5-85.11-10.33-175.12-9.69-90.01.64-152.82,5.37-191.72-33.09S-3.09,56.8.87,78.51c3.95,21.71,40.48,94.3,110.58,110.57,70.1,16.27,118.8,24.78,207.75,49.65,88.95,24.87,171.79,46.24,213.61.52h0Z"/>
      <path class="cls-7" d="m408.07,176.63c43.84-3.24,133.89,33,125.28,61.9,24.85-29.57-75.03-71.35-121.96-67.87-47.3,3.5-85.11-10.33-175.12-9.69-90.01.63-152.82,5.36-191.72-33.09C5.66,89.41-3.09,56.8.87,78.51c.37,2.04,1.13,4.66,2.08,7.51,6.46,10.14,18.43,28.19,38.29,47.83,38.9,38.46,101.71,33.73,191.72,33.09,90.01-.63,127.82,13.2,175.12,9.69h0Z"/>
      <path class="cls-5" d="m319.19,238.73c88.95,24.87,171.79,46.24,213.61.52,5.18-5.67,5.64-11.81,2.7-18.01-34.87,32.89-104.28,16.39-196.37-15.55-108.77-37.71-146.5-4.4-232.98-32.23C48.73,154.98,16.29,112.08.25,74.84c.15.99.34,2.18.61,3.67,3.95,21.71,40.48,94.3,110.58,110.57,70.1,16.27,118.8,24.78,207.75,49.65h0Z"/>
      <path class="cls-5" d="m319.19,238.73c88.95,24.87,171.79,46.24,213.61.52,5.18-5.67,5.64-11.81,2.7-18.01-34.87,32.89-104.28,16.39-196.37-15.55-108.77-37.71-146.5-4.4-232.98-32.23C48.73,154.98,16.29,112.08.25,74.84c.15.99.34,2.18.61,3.67,3.95,21.71,40.48,94.3,110.58,110.57,70.1,16.27,118.8,24.78,207.75,49.65h0Z"/>
      <path class="cls-4" d="m110.71,183.27C44.43,167.89,8.2,102.2,1.11,76.74c-.28-.63-.59-1.27-.86-1.9.15.99.34,2.18.61,3.67,3.95,21.71,40.48,94.3,110.58,110.57,70.1,16.27,118.8,24.78,207.75,49.65,88.95,24.87,171.78,46.24,213.61.52,4.39-4.8,5.23-9.94,3.65-15.17-.29,3.21-1.63,6.36-4.38,9.36-41.83,45.72-124.67,24.36-213.61-.52-88.95-24.87-137.65-33.38-207.75-49.65h0Z"/>
      <path class="cls-5" d="m406.82,229.91s-100.83-24.95-198.2-32.91c-97.37-7.96-76.87-11.5-69.65-15.27,7.23-3.77,29.84-45.03,58.39-101.47,28.55-56.45,51.67-81.18,78.63-31.85,26.96,49.33,61.83,146.04,130.82,181.5h0Z"/>
      <path class="cls-3" d="m398.17,230.57s-47.65-30.71-81.53-77.06c-33.87-46.34-43.53-112.32-56.28-120.29-12.76-7.97-17.04,31.64,18.34,103.64,35.38,72,119.47,93.71,119.47,93.71h0Z"/>
      <path class="cls-8" d="m504.21,209.23c2.87-2.22,6.92-1.59,9.05,1.41.03.04.05.07.08.11,2.07,3.04,1.39,7.26-1.53,9.42-2.91,2.16-6.95,1.45-9.02-1.59-2.04-3-1.41-7.15,1.42-9.34Z"/>
      <path class="cls-11" d="m506.13,210.23c.65.09,1.12.71,1.04,1.39,0,.03,0,.05-.01.08-.12.68-.75,1.12-1.4.99-.65-.13-1.07-.78-.95-1.46.12-.65.7-1.09,1.32-1Z"/>
      <path class="cls-1" d="m182.93,113.47c-11.2,26.83-31.62,74.65-21.05,70.72,10.58-3.93,55.28-68.02,68.55-128.51,8.89-40.52-36.31,30.97-47.51,57.8Z"/>
      <path class="cls-2" d="m384.96,85.81c1.9.02,3.42,2.19,3.4,4.86-.02,2.67-1.58,4.82-3.47,4.8-1.9-.02-3.42-2.19-3.4-4.86.02-2.67,1.58-4.82,3.47-4.8Zm11.41,59.34c1.9.02,3.42,2.19,3.4,4.86-.02,2.67-1.58,4.82-3.47,4.8s-3.42-2.19-3.4-4.86c.02-2.67,1.58-4.82,3.47-4.8Zm33.61,58.54c-2.48-.67-4.09-2.77-3.62-4.69.48-1.92,2.87-2.93,5.34-2.26s4.09,2.77,3.62,4.68c-.48,1.92-2.87,2.93-5.34,2.26h0Zm57.51,20.5c-2.48-.67-4.09-2.77-3.62-4.69.48-1.92,2.87-2.93,5.34-2.26,2.47.67,4.09,2.77,3.62,4.68-.48,1.92-2.87,2.93-5.34,2.26h0Zm-92.32-31.38c-2.48-.67-4.1-2.77-3.62-4.69.48-1.92,2.87-2.93,5.34-2.26s4.09,2.77,3.62,4.68-2.87,2.93-5.34,2.26h0Zm64.74,3.8c-2.48-.67-4.1-2.77-3.62-4.68.48-1.92,2.87-2.93,5.34-2.26s4.09,2.77,3.62,4.69c-.48,1.92-2.87,2.93-5.34,2.26h0Zm-76.74,11.78c-2.47-.67-4.09-2.77-3.62-4.68.48-1.92,2.87-2.93,5.34-2.26s4.1,2.77,3.62,4.69c-.48,1.92-2.87,2.93-5.34,2.26h0Zm-265-42.64c.48-1.92,2.87-2.93,5.34-2.26s4.09,2.77,3.62,4.68c-.48,1.92-2.87,2.93-5.34,2.26-2.48-.67-4.1-2.77-3.62-4.68Zm280.95-88.76c.92,0,1.65,1.06,1.64,2.35,0,1.29-.76,2.33-1.68,2.32-.92,0-1.65-1.06-1.64-2.35,0-1.29.76-2.33,1.68-2.32Zm25.2,24.66c.92,0,1.65,1.06,1.64,2.35,0,1.29-.76,2.33-1.68,2.32-.92,0-1.65-1.06-1.64-2.35.01-1.29.76-2.33,1.68-2.32Zm17.31,48.64c.92,0,1.65,1.06,1.64,2.35s-.76,2.33-1.68,2.32c-.92,0-1.65-1.06-1.64-2.35.01-1.29.76-2.33,1.68-2.32Zm-101.59-56.28c.92,0,1.65,1.06,1.64,2.35s-.76,2.33-1.68,2.32c-.92,0-1.65-1.06-1.64-2.35.01-1.29.76-2.33,1.68-2.32Zm19.55-9.91c.92,0,1.65,1.06,1.64,2.35,0,1.29-.76,2.33-1.68,2.32-.92,0-1.65-1.06-1.64-2.35,0-1.29.76-2.33,1.68-2.32Zm6.69-32.82c.92,0,1.65,1.06,1.64,2.35-.01,1.29-.76,2.33-1.68,2.32-.92,0-1.65-1.06-1.64-2.35,0-1.29.76-2.33,1.68-2.32Zm-46.39,47.26c.92,0,1.65,1.06,1.64,2.35-.01,1.29-.76,2.33-1.68,2.32-.92,0-1.65-1.06-1.64-2.35.01-1.29.76-2.33,1.68-2.32Zm59.98,23.16c.92,0,1.65,1.06,1.64,2.35,0,1.29-.76,2.33-1.68,2.32-.92,0-1.65-1.06-1.64-2.35,0-1.29.76-2.33,1.68-2.32Zm78.33,94.96c.36-.88,1.57-1.19,2.7-.69,1.14.5,1.77,1.62,1.42,2.5-.36.88-1.57,1.19-2.7.69-1.14-.5-1.77-1.62-1.42-2.5Zm-30.85-32.93c.36-.88,1.57-1.19,2.7-.69,1.14.5,1.77,1.62,1.42,2.5-.36.88-1.57,1.19-2.7.69-1.14-.5-1.77-1.62-1.42-2.5Zm6.59,34.35c.36-.88,1.57-1.19,2.7-.69,1.14.5,1.77,1.62,1.42,2.5-.36.88-1.57,1.19-2.7.69-1.14-.5-1.77-1.62-1.42-2.5Zm-75.74-45.38c.35-.88,1.57-1.19,2.7-.69s1.77,1.62,1.42,2.5c-.35.88-1.57,1.19-2.7.69-1.14-.5-1.77-1.62-1.42-2.5Zm-259.22-7.44c.36-.88,1.57-1.19,2.7-.69,1.14.5,1.77,1.62,1.42,2.5-.36.88-1.57,1.19-2.7.69-1.14-.5-1.77-1.62-1.42-2.5Zm-22.46-14.14c.35-.88,1.57-1.19,2.7-.69s1.77,1.62,1.42,2.5c-.35.88-1.57,1.19-2.7.69-1.14-.5-1.77-1.62-1.42-2.5Zm63.63,16.39c.36-.88,1.57-1.19,2.7-.69s1.77,1.62,1.42,2.5c-.36.88-1.57,1.19-2.7.69-1.14-.5-1.77-1.62-1.42-2.5Zm206.99-109.35c1.9.02,3.42,2.19,3.4,4.86-.02,2.67-1.57,4.82-3.47,4.8-1.9-.02-3.42-2.19-3.4-4.86.02-2.67,1.57-4.82,3.47-4.8Zm50.5-19.88c1.9.02,3.42,2.19,3.4,4.86-.02,2.67-1.58,4.82-3.47,4.8-1.9-.02-3.42-2.19-3.4-4.86.02-2.67,1.58-4.82,3.47-4.8Zm-60.17,94.47c1.9.02,3.42,2.19,3.4,4.86s-1.57,4.82-3.47,4.8c-1.9-.02-3.42-2.19-3.4-4.86.02-2.67,1.58-4.82,3.47-4.8Zm77.47-7.72c1.9.02,3.42,2.19,3.4,4.86-.02,2.67-1.58,4.82-3.47,4.8-1.9-.02-3.42-2.19-3.4-4.86.02-2.67,1.57-4.82,3.47-4.8Zm-50.99-93.61c1.9.02,3.42,2.19,3.4,4.86-.02,2.67-1.58,4.82-3.47,4.8-1.9-.02-3.42-2.19-3.4-4.86.02-2.67,1.57-4.82,3.47-4.8Z"/>
    </g>
  </g>
</svg>