<?xml version="1.0" encoding="UTF-8"?>
<svg id="Layer_2" data-name="Layer 2" xmlns="http://www.w3.org/2000/svg" xmlns:xlink="http://www.w3.org/1999/xlink" viewBox="0 0 189.66 91.38">
  <defs>
    <style>
      .cls-1 {
        opacity: .1;
      }

      .cls-1, .cls-2, .cls-3, .cls-4 {
        isolation: isolate;
      }

      .cls-1, .cls-2, .cls-3, .cls-4, .cls-5, .cls-6, .cls-7, .cls-8, .cls-9, .cls-10, .cls-11 {
        stroke-width: 0px;
      }

      .cls-1, .cls-10 {
        fill: #204c77;
      }

      .cls-12 {
        filter: url(#outer-glow-1);
        opacity: .66;
      }

      .cls-2, .cls-3 {
        opacity: .3;
      }

      .cls-2, .cls-5 {
        fill: #a1b5c9;
      }

      .cls-3, .cls-4, .cls-11 {
        fill: #fff;
      }

      .cls-4 {
        opacity: .4;
      }

      .cls-13 {
        opacity: .2;
      }

      .cls-6 {
        fill: #3680c9;
      }

      .cls-7 {
        fill: #193c63;
      }

      .cls-8 {
        fill: #0b1a28;
      }

      .cls-9 {
        fill: #22507d;
      }
    </style>
    <filter id="outer-glow-1" filterUnits="userSpaceOnUse">
      <feOffset dx="0" dy="0"/>
      <feGaussianBlur result="blur" stdDeviation="6.26"/>
      <feFlood flood-color="#000" flood-opacity=".5"/>
      <feComposite in2="blur" operator="in"/>
      <feComposite in="SourceGraphic"/>
    </filter>
  </defs>
  <g id="Layer_1-2" data-name="Layer 1">
    <g class="cls-12">
      <path class="cls-10" d="m92.01,71.11c-22.96-4.94-13.59-21.84,13.3-37.71C132.2,17.52,117.03-3.19,128.8.41c11.78,3.61,56.88,74.24,16.48,76.68-15.63.95-30.31-1.06-53.27-5.99Z"/>
      <g class="cls-13">
        <path class="cls-6" d="m103.48,39.74c12.72-7.51,16.02-16.1,17.22-22.68-2.18,5.27-6.46,11.07-15.38,16.34-16.59,9.79-26.48,19.97-26.25,27.5,3.56-6.44,12.13-13.9,24.42-21.15h0ZM126.97,6.76c8.64,2.65,35.15,41.3,32.78,62.71C170,50.61,138.38,3.35,128.8.41c-5.02-1.54-5.15,1.35-5.72,6.38.79-.56,1.98-.62,3.88-.04h0Z"/>
      </g>
      <path class="cls-7" d="m142.99,54.91c-16.43,1.94-29.82-2.31-61.18-.72-.25.01-.5.03-.75.04-4.49,7.8-1.69,14.16,10.95,16.87,22.96,4.94,37.64,6.94,53.27,5.99,13.49-.82,17.42-9.25,16.27-20.24-6.78-1.72-13.57-2.54-18.56-1.95h0Z"/>
      <path class="cls-9" d="m188.24,80.85c8.99-10.73-26.92-24-43.35-22.06-16.43,1.94-29.82-2.31-61.18-.72-31.36,1.59-53.18,4.19-67.32-8.62C2.23,36.63-1.31,25.4.4,32.91c1.71,7.51,15.54,32.25,40.22,36.86,24.68,4.61,41.78,6.83,73.16,14.15,31.38,7.32,60.58,13.51,74.46-3.06h0Z"/>
      <path class="cls-7" d="m143.81,60.92c15.23-1.8,47.17,9.47,44.61,19.67,8.21-10.68-27.23-23.73-43.54-21.8-16.43,1.94-29.82-2.31-61.18-.72-31.36,1.59-53.18,4.19-67.32-8.62C2.23,36.63-1.31,25.4.4,32.91c.16.71.46,1.61.84,2.59,2.41,3.43,6.85,9.55,14.07,16.09,14.14,12.81,35.96,10.21,67.32,8.62,31.36-1.59,44.75,2.66,61.18.72h0Z"/>
      <path class="cls-5" d="m113.78,83.91c31.38,7.32,60.58,13.51,74.46-3.06,1.72-2.05,1.79-4.2.67-6.32-11.65,11.99-36.1,7.3-68.68-2.44-38.48-11.49-51.13.69-81.69-7.69C18.24,58.83,6.28,44.37.13,31.64c.07.34.15.75.27,1.27,1.71,7.51,15.54,32.25,40.22,36.86,24.68,4.61,41.78,6.83,73.16,14.15h0Z"/>
      <path class="cls-5" d="m113.78,83.91c31.38,7.32,60.58,13.51,74.46-3.06,1.72-2.05,1.79-4.2.67-6.32-11.65,11.99-36.1,7.3-68.68-2.44-38.48-11.49-51.13.69-81.69-7.69C18.24,58.83,6.28,44.37.13,31.64c.07.34.15.75.27,1.27,1.71,7.51,15.54,32.25,40.22,36.86,24.68,4.61,41.78,6.83,73.16,14.15h0Z"/>
      <path class="cls-4" d="m40.27,67.75C16.94,63.4,3.31,41.05.46,32.29c-.11-.22-.23-.43-.33-.65.07.34.15.75.27,1.27,1.71,7.51,15.54,32.25,40.22,36.86,24.68,4.61,41.78,6.83,73.16,14.15,31.38,7.32,60.58,13.51,74.46-3.06,1.46-1.74,1.67-3.55,1.04-5.34-.05,1.12-.47,2.24-1.38,3.33-13.88,16.57-43.08,10.38-74.46,3.06s-48.48-9.54-73.16-14.15h0Z"/>
      <path class="cls-5" d="m144.18,79.51s-35.52-7.16-69.58-8.46c-34.06-1.29-26.97-2.84-24.51-4.26,2.46-1.42,9.72-16.15,18.81-36.25,9.09-20.11,16.78-29.08,26.92-12.3,10.15,16.79,23.77,49.96,48.35,61.27h0Z"/>
      <path class="cls-3" d="m141.18,79.87s-17.07-9.98-29.59-25.62c-12.51-15.64-16.88-38.49-21.44-41.07-4.57-2.59-5.46,11.29,7.97,35.84,13.43,24.56,43.06,30.85,43.06,30.85h0Z"/>
      <path class="cls-8" d="m177.82,70.82c.97-.82,2.39-.66,3.18.35,0,.01.02.02.03.04.77,1.03.59,2.51-.39,3.31-.98.8-2.4.61-3.17-.42-.76-1.01-.6-2.47.35-3.28Z"/>
      <path class="cls-11" d="m178.5,71.14c.23.02.4.23.38.47,0,0,0,.02,0,.03-.03.24-.24.4-.47.37-.23-.04-.39-.26-.35-.49.03-.23.23-.39.45-.37Z"/>
      <path class="cls-1" d="m64.38,42.33c-3.49,9.52-9.89,26.5-6.26,24.97s18.23-24.55,21.94-45.83c2.48-14.26-12.18,11.34-15.68,20.87Z"/>
      <path class="cls-2" d="m134.38,29.62c.66-.02,1.22.71,1.26,1.64.03.93-.48,1.7-1.14,1.73-.66.02-1.22-.71-1.26-1.64-.03-.93.48-1.7,1.14-1.73Zm4.88,20.51c.66-.02,1.22.71,1.26,1.64.03.93-.48,1.7-1.14,1.73s-1.22-.71-1.26-1.64c-.03-.93.48-1.7,1.14-1.73Zm12.6,19.89c-.87-.2-1.47-.9-1.33-1.58.14-.68.95-1.06,1.83-.87s1.47.9,1.33,1.58c-.14.68-.96,1.06-1.83.87h0Zm20.35,6.27c-.87-.2-1.47-.9-1.33-1.58.14-.68.96-1.06,1.83-.87.87.2,1.47.9,1.33,1.58-.14.68-.95,1.06-1.83.87h0Zm-32.66-9.53c-.87-.2-1.47-.9-1.33-1.58.14-.68.95-1.06,1.83-.87s1.47.9,1.33,1.58-.96,1.06-1.83.87h0Zm22.62.34c-.87-.2-1.47-.9-1.33-1.58.14-.68.95-1.06,1.83-.87s1.47.9,1.33,1.58c-.14.68-.96,1.06-1.83.87h0Zm-26.57,5.27c-.87-.2-1.47-.9-1.33-1.58.14-.68.95-1.06,1.83-.87s1.47.9,1.33,1.58c-.14.68-.96,1.06-1.83.87h0Zm-93.01-10.83c.14-.68.96-1.06,1.83-.87s1.47.9,1.33,1.58c-.14.68-.96,1.06-1.83.87-.87-.2-1.47-.9-1.33-1.58Zm96.57-35.2c.32-.01.59.34.61.79.02.45-.23.82-.55.83-.32.01-.59-.34-.61-.79-.02-.45.23-.82.55-.83Zm9.16,8.21c.32-.01.59.34.61.79.02.45-.23.82-.55.83-.32.01-.59-.34-.61-.79-.02-.45.23-.82.55-.83Zm6.77,16.69c.32-.01.59.34.61.79s-.23.82-.55.83c-.32.01-.59-.34-.61-.79-.02-.45.23-.82.55-.83Zm-36.26-18.07c.32-.01.59.34.61.79s-.23.82-.55.83c-.32.01-.59-.34-.61-.79-.02-.45.23-.82.55-.83Zm6.66-3.75c.32-.01.59.34.61.79.02.45-.23.82-.55.83-.32.01-.59-.34-.61-.79-.02-.45.23-.82.55-.83Zm1.83-11.54c.32-.01.59.34.61.79.02.45-.23.82-.55.83-.32.01-.59-.34-.61-.79-.02-.45.23-.82.55-.83Zm-15.45,17.18c.32-.01.59.34.61.79.02.45-.23.82-.55.83-.32.01-.59-.34-.61-.79-.02-.45.23-.82.55-.83Zm21.26,7.16c.32-.01.59.34.61.79.02.45-.23.82-.55.83-.32.01-.59-.34-.61-.79-.02-.45.23-.82.55-.83Zm28.74,31.91c.11-.31.53-.44.93-.28.4.16.64.54.53.85-.11.31-.53.44-.93.28-.4-.16-.64-.54-.53-.85Zm-11.25-11.01c.11-.31.53-.44.93-.28.4.16.64.54.53.85-.11.31-.53.44-.93.28-.4-.16-.64-.54-.53-.85Zm2.82,11.87c.11-.31.53-.44.93-.28.4.16.64.54.53.85-.11.31-.53.44-.93.28-.4-.16-.64-.54-.53-.85Zm-27.09-14.67c.11-.31.53-.44.93-.28s.64.54.53.85c-.11.31-.53.44-.93.28-.4-.16-.64-.54-.53-.85Zm-90.46,1.35c.11-.31.53-.44.93-.28.4.16.64.54.53.85-.11.31-.53.44-.93.28-.4-.16-.64-.54-.53-.85Zm-8.04-4.59c.11-.31.53-.44.93-.28s.64.54.53.85c-.11.31-.53.44-.93.28-.4-.16-.64-.54-.53-.85Zm22.43,4.75c.11-.31.53-.44.93-.28s.64.54.53.85c-.11.31-.53.44-.93.28-.4-.16-.64-.54-.53-.85ZM120.78,20.56c.66-.02,1.22.71,1.26,1.64.03.93-.48,1.7-1.14,1.73-.66.02-1.22-.71-1.26-1.64-.03-.93.48-1.7,1.14-1.73Zm17.3-7.7c.66-.02,1.22.71,1.26,1.64.03.93-.48,1.7-1.14,1.73-.66.02-1.22-.71-1.26-1.64-.03-.93.48-1.7,1.14-1.73Zm-19.54,33.84c.66-.02,1.22.71,1.26,1.64s-.48,1.7-1.14,1.73c-.66.02-1.22-.71-1.26-1.64-.03-.93.48-1.7,1.14-1.73Zm26.88-3.87c.66-.02,1.22.71,1.26,1.64.03.93-.48,1.7-1.14,1.73-.66.02-1.22-.71-1.26-1.64-.03-.93.48-1.7,1.14-1.73Zm-19.19-31.85c.66-.02,1.22.71,1.26,1.64.03.93-.48,1.7-1.14,1.73-.66.02-1.22-.71-1.26-1.64-.03-.93.48-1.7,1.14-1.73Z"/>
    </g>
  </g>
</svg>