<?xml version="1.0" encoding="UTF-8"?>
<svg id="Layer_2" data-name="Layer 2" xmlns="http://www.w3.org/2000/svg" xmlns:xlink="http://www.w3.org/1999/xlink" viewBox="0 0 772.37 266.07">
  <defs>
    <style>
      .cls-1 {
        opacity: .1;
      }

      .cls-1, .cls-2, .cls-3, .cls-4 {
        isolation: isolate;
      }

      .cls-1, .cls-2, .cls-3, .cls-4, .cls-5, .cls-6, .cls-7, .cls-8, .cls-9, .cls-10, .cls-11 {
        stroke-width: 0px;
      }

      .cls-1, .cls-10 {
        fill: #204c77;
      }

      .cls-12 {
        filter: url(#outer-glow-2);
        opacity: .66;
      }

      .cls-2, .cls-3 {
        opacity: .3;
      }

      .cls-2, .cls-5 {
        fill: #a1b5c9;
      }

      .cls-3, .cls-4, .cls-11 {
        fill: #fff;
      }

      .cls-4 {
        opacity: .4;
      }

      .cls-13 {
        opacity: .2;
      }

      .cls-6 {
        fill: #3680c9;
      }

      .cls-7 {
        fill: #193c63;
      }

      .cls-8 {
        fill: #0b1a28;
      }

      .cls-9 {
        fill: #22507d;
      }

      .cls-14 {
        filter: url(#outer-glow-1);
      }
    </style>
    <filter id="outer-glow-1" filterUnits="userSpaceOnUse">
      <feOffset dx="0" dy="0"/>
      <feGaussianBlur result="blur" stdDeviation="10.29"/>
      <feFlood flood-color="#000" flood-opacity=".5"/>
      <feComposite in2="blur" operator="in"/>
      <feComposite in="SourceGraphic"/>
    </filter>
    <filter id="outer-glow-2" filterUnits="userSpaceOnUse">
      <feOffset dx="0" dy="0"/>
      <feGaussianBlur result="blur-2" stdDeviation="6.26"/>
      <feFlood flood-color="#000" flood-opacity=".5"/>
      <feComposite in2="blur-2" operator="in"/>
      <feComposite in="SourceGraphic"/>
    </filter>
  </defs>
  <g id="Layer_1-2" data-name="Layer 1">
    <g>
      <path class="cls-10" d="m493.49,199.33c-65.15-17-36.18-64.25,42.8-106.34,78.98-42.1,38.11-103.31,71.39-91.51,33.28,11.8,153.64,219.69,37.62,221.66-44.87.76-86.66-6.81-151.81-23.81Z"/>
      <g class="cls-13">
        <path class="cls-6" d="m530.24,110.93c37.36-19.91,47.89-44.09,52.15-62.81-6.9,14.82-19.87,30.89-46.09,44.87-48.74,25.98-78.33,53.89-78.62,75.47,11-18.01,36.47-38.29,72.56-57.53h0Zm71.39-91.51c24.4,8.65,95.51,122.66,86.03,183.69,31.74-52.74-52.91-192.03-79.98-201.63-14.17-5.03-14.9,3.22-17.16,17.56,2.32-1.5,5.74-1.52,11.1.38h0Z"/>
      </g>
      <path class="cls-7" d="m641.51,159.31c-47.3,3.5-85.11-10.33-175.12-9.69-.73,0-1.42.02-2.15.02-13.82,21.79-6.61,40.33,29.26,49.69,65.15,17,106.94,24.57,151.81,23.81,38.74-.66,51.04-24.32,49.11-55.92-19.2-5.77-38.54-8.96-52.9-7.9h0Z"/>
      <path class="cls-9" d="m767.84,239.25c27.09-29.61-74.1-72.09-121.4-68.59-47.3,3.5-85.11-10.33-175.12-9.69-90.01.64-152.82,5.37-191.72-33.09s-47.64-71.07-43.69-49.36c3.95,21.71,40.48,94.3,110.58,110.57,70.1,16.27,118.8,24.78,207.75,49.65,88.95,24.87,171.79,46.24,213.61.52h0Z"/>
      <path class="cls-7" d="m643.11,176.63c43.84-3.24,133.89,33,125.28,61.9,24.85-29.57-75.03-71.35-121.96-67.87-47.3,3.5-85.11-10.33-175.12-9.69-90.01.63-152.82,5.36-191.72-33.09-38.9-38.46-47.64-71.07-43.69-49.36.37,2.04,1.13,4.66,2.08,7.51,6.46,10.14,18.43,28.19,38.29,47.83,38.9,38.46,101.71,33.73,191.72,33.09,90.01-.63,127.82,13.2,175.12,9.69h0Z"/>
      <path class="cls-5" d="m554.22,238.73c88.95,24.87,171.79,46.24,213.61.52,5.18-5.67,5.64-11.81,2.7-18.01-34.87,32.89-104.28,16.39-196.37-15.55-108.77-37.71-146.5-4.4-232.98-32.23-57.43-18.48-89.87-61.39-105.91-98.62.15.99.34,2.18.61,3.67,3.95,21.71,40.48,94.3,110.58,110.57,70.1,16.27,118.8,24.78,207.75,49.65h0Z"/>
      <path class="cls-5" d="m554.22,238.73c88.95,24.87,171.79,46.24,213.61.52,5.18-5.67,5.64-11.81,2.7-18.01-34.87,32.89-104.28,16.39-196.37-15.55-108.77-37.71-146.5-4.4-232.98-32.23-57.43-18.48-89.87-61.39-105.91-98.62.15.99.34,2.18.61,3.67,3.95,21.71,40.48,94.3,110.58,110.57,70.1,16.27,118.8,24.78,207.75,49.65h0Z"/>
      <path class="cls-4" d="m345.75,183.27c-66.29-15.39-102.51-81.08-109.6-106.54-.28-.63-.59-1.27-.86-1.9.15.99.34,2.18.61,3.67,3.95,21.71,40.48,94.3,110.58,110.57,70.1,16.27,118.8,24.78,207.75,49.65,88.95,24.87,171.78,46.24,213.61.52,4.39-4.8,5.23-9.94,3.65-15.17-.29,3.21-1.63,6.36-4.38,9.36-41.83,45.72-124.67,24.36-213.61-.52-88.95-24.87-137.65-33.38-207.75-49.65h0Z"/>
      <path class="cls-5" d="m641.85,229.91s-100.83-24.95-198.2-32.91c-97.37-7.96-76.87-11.5-69.65-15.27,7.23-3.77,29.84-45.03,58.39-101.47,28.55-56.45,51.67-81.18,78.63-31.85,26.96,49.33,61.83,146.04,130.82,181.5h0Z"/>
      <path class="cls-3" d="m633.2,230.57s-47.65-30.71-81.53-77.06c-33.87-46.34-43.53-112.32-56.28-120.29-12.76-7.97-17.04,31.64,18.34,103.64,35.38,72,119.47,93.71,119.47,93.71h0Z"/>
      <path class="cls-8" d="m739.25,209.23c2.87-2.22,6.92-1.59,9.05,1.41.03.04.05.07.08.11,2.07,3.04,1.39,7.26-1.53,9.42-2.91,2.16-6.95,1.45-9.02-1.59-2.04-3-1.41-7.15,1.42-9.34Z"/>
      <path class="cls-11" d="m741.17,210.23c.65.09,1.12.71,1.04,1.39,0,.03,0,.05-.01.08-.12.68-.75,1.12-1.4.99-.65-.13-1.07-.78-.95-1.46.12-.65.7-1.09,1.32-1Z"/>
      <path class="cls-1" d="m417.96,113.47c-11.2,26.83-31.62,74.65-21.05,70.72,10.58-3.93,55.28-68.02,68.55-128.51,8.89-40.52-36.31,30.97-47.51,57.8Z"/>
      <path class="cls-2" d="m620,85.81c1.9.02,3.42,2.19,3.4,4.86-.02,2.67-1.58,4.82-3.47,4.8-1.9-.02-3.42-2.19-3.4-4.86.02-2.67,1.58-4.82,3.47-4.8Zm11.41,59.34c1.9.02,3.42,2.19,3.4,4.86-.02,2.67-1.58,4.82-3.47,4.8s-3.42-2.19-3.4-4.86c.02-2.67,1.58-4.82,3.47-4.8Zm33.61,58.54c-2.48-.67-4.09-2.77-3.62-4.69.48-1.92,2.87-2.93,5.34-2.26s4.09,2.77,3.62,4.68c-.48,1.92-2.87,2.93-5.34,2.26h0Zm57.51,20.5c-2.48-.67-4.09-2.77-3.62-4.69.48-1.92,2.87-2.93,5.34-2.26,2.47.67,4.09,2.77,3.62,4.68-.48,1.92-2.87,2.93-5.34,2.26h0Zm-92.32-31.38c-2.48-.67-4.1-2.77-3.62-4.69.48-1.92,2.87-2.93,5.34-2.26s4.09,2.77,3.62,4.68-2.87,2.93-5.34,2.26h0Zm64.74,3.8c-2.48-.67-4.1-2.77-3.62-4.68.48-1.92,2.87-2.93,5.34-2.26s4.09,2.77,3.62,4.69c-.48,1.92-2.87,2.93-5.34,2.26h0Zm-76.74,11.78c-2.47-.67-4.09-2.77-3.62-4.68.48-1.92,2.87-2.93,5.34-2.26s4.1,2.77,3.62,4.69c-.48,1.92-2.87,2.93-5.34,2.26h0Zm-265-42.64c.48-1.92,2.87-2.93,5.34-2.26s4.09,2.77,3.62,4.68c-.48,1.92-2.87,2.93-5.34,2.26-2.48-.67-4.1-2.77-3.62-4.68Zm280.95-88.76c.92,0,1.65,1.06,1.64,2.35,0,1.29-.76,2.33-1.68,2.32-.92,0-1.65-1.06-1.64-2.35,0-1.29.76-2.33,1.68-2.32Zm25.2,24.66c.92,0,1.65,1.06,1.64,2.35,0,1.29-.76,2.33-1.68,2.32-.92,0-1.65-1.06-1.64-2.35.01-1.29.76-2.33,1.68-2.32Zm17.31,48.64c.92,0,1.65,1.06,1.64,2.35s-.76,2.33-1.68,2.32c-.92,0-1.65-1.06-1.64-2.35.01-1.29.76-2.33,1.68-2.32Zm-101.59-56.28c.92,0,1.65,1.06,1.64,2.35s-.76,2.33-1.68,2.32c-.92,0-1.65-1.06-1.64-2.35.01-1.29.76-2.33,1.68-2.32Zm19.55-9.91c.92,0,1.65,1.06,1.64,2.35,0,1.29-.76,2.33-1.68,2.32-.92,0-1.65-1.06-1.64-2.35,0-1.29.76-2.33,1.68-2.32Zm6.69-32.82c.92,0,1.65,1.06,1.64,2.35-.01,1.29-.76,2.33-1.68,2.32-.92,0-1.65-1.06-1.64-2.35,0-1.29.76-2.33,1.68-2.32Zm-46.39,47.26c.92,0,1.65,1.06,1.64,2.35-.01,1.29-.76,2.33-1.68,2.32-.92,0-1.65-1.06-1.64-2.35.01-1.29.76-2.33,1.68-2.32Zm59.98,23.16c.92,0,1.65,1.06,1.64,2.35,0,1.29-.76,2.33-1.68,2.32-.92,0-1.65-1.06-1.64-2.35,0-1.29.76-2.33,1.68-2.32Zm78.33,94.96c.36-.88,1.57-1.19,2.7-.69,1.14.5,1.77,1.62,1.42,2.5-.36.88-1.57,1.19-2.7.69-1.14-.5-1.77-1.62-1.42-2.5Zm-30.85-32.93c.36-.88,1.57-1.19,2.7-.69,1.14.5,1.77,1.62,1.42,2.5-.36.88-1.57,1.19-2.7.69-1.14-.5-1.77-1.62-1.42-2.5Zm6.59,34.35c.36-.88,1.57-1.19,2.7-.69,1.14.5,1.77,1.62,1.42,2.5-.36.88-1.57,1.19-2.7.69-1.14-.5-1.77-1.62-1.42-2.5Zm-75.74-45.38c.35-.88,1.57-1.19,2.7-.69s1.77,1.62,1.42,2.5c-.35.88-1.57,1.19-2.7.69-1.14-.5-1.77-1.62-1.42-2.5Zm-259.22-7.44c.36-.88,1.57-1.19,2.7-.69,1.14.5,1.77,1.62,1.42,2.5-.36.88-1.57,1.19-2.7.69-1.14-.5-1.77-1.62-1.42-2.5Zm-22.46-14.14c.35-.88,1.57-1.19,2.7-.69s1.77,1.62,1.42,2.5c-.35.88-1.57,1.19-2.7.69-1.14-.5-1.77-1.62-1.42-2.5Zm63.63,16.39c.36-.88,1.57-1.19,2.7-.69s1.77,1.62,1.42,2.5c-.36.88-1.57,1.19-2.7.69-1.14-.5-1.77-1.62-1.42-2.5Zm206.99-109.35c1.9.02,3.42,2.19,3.4,4.86-.02,2.67-1.57,4.82-3.47,4.8-1.9-.02-3.42-2.19-3.4-4.86.02-2.67,1.57-4.82,3.47-4.8Zm50.5-19.88c1.9.02,3.42,2.19,3.4,4.86-.02,2.67-1.58,4.82-3.47,4.8-1.9-.02-3.42-2.19-3.4-4.86.02-2.67,1.58-4.82,3.47-4.8Zm-60.17,94.47c1.9.02,3.42,2.19,3.4,4.86s-1.57,4.82-3.47,4.8c-1.9-.02-3.42-2.19-3.4-4.86.02-2.67,1.58-4.82,3.47-4.8Zm77.47-7.72c1.9.02,3.42,2.19,3.4,4.86-.02,2.67-1.58,4.82-3.47,4.8-1.9-.02-3.42-2.19-3.4-4.86.02-2.67,1.57-4.82,3.47-4.8Zm-50.99-93.61c1.9.02,3.42,2.19,3.4,4.86-.02,2.67-1.58,4.82-3.47,4.8-1.9-.02-3.42-2.19-3.4-4.86.02-2.67,1.57-4.82,3.47-4.8Z"/>
    </g>
    <g class="cls-14">
      <path class="cls-10" d="m218.74,231.74c-37.74-8.11-22.33-35.9,21.86-61.98,44.19-26.09,19.25-60.13,38.61-54.2,19.36,5.93,93.49,122.01,27.08,126.03-25.68,1.56-49.81-1.74-87.55-9.85Z"/>
      <g class="cls-13">
        <path class="cls-6" d="m237.58,180.18c20.9-12.34,26.33-26.45,28.31-37.28-3.58,8.66-10.61,18.19-25.28,26.85-27.27,16.1-43.52,32.83-43.15,45.19,5.85-10.59,19.93-22.85,40.13-34.77h0Zm38.61-54.2c14.19,4.35,57.77,67.88,53.87,103.07,16.86-31-35.1-108.68-50.85-113.5-8.25-2.52-8.46,2.21-9.39,10.49,1.29-.92,3.25-1.01,6.37-.06h0Z"/>
      </g>
      <path class="cls-7" d="m302.53,205.12c-27.01,3.19-49.01-3.79-100.56-1.18-.42.02-.81.04-1.23.07-7.37,12.82-2.78,23.27,18,27.73,37.74,8.11,61.87,11.4,87.55,9.85,22.17-1.34,28.63-15.2,26.74-33.26-11.14-2.83-22.3-4.17-30.5-3.21h0Z"/>
      <path class="cls-9" d="m376.89,247.75c14.78-17.64-44.24-39.45-71.25-36.26-27.01,3.19-49.01-3.79-100.56-1.18-51.54,2.61-87.41,6.89-110.65-14.17-23.24-21.06-29.07-39.52-26.26-27.18,2.81,12.34,25.54,53.01,66.1,60.58,40.56,7.57,68.67,11.23,120.24,23.25,51.57,12.03,99.56,22.2,122.38-5.04h0Z"/>
      <path class="cls-7" d="m303.88,215c25.03-2.95,77.52,15.56,73.31,32.33,13.5-17.56-44.76-39-71.55-35.83-27.01,3.19-49.01-3.79-100.56-1.18-51.54,2.61-87.41,6.89-110.65-14.17-23.24-21.06-29.07-39.52-26.26-27.18.26,1.16.76,2.64,1.38,4.25,3.96,5.65,11.26,15.69,23.12,26.44,23.24,21.06,59.1,16.78,110.65,14.17,51.54-2.61,73.55,4.37,100.56,1.18h0Z"/>
      <path class="cls-5" d="m254.51,252.79c51.57,12.03,99.56,22.2,122.38-5.04,2.83-3.38,2.94-6.9,1.1-10.38-19.15,19.71-59.33,11.99-112.87-4-63.25-18.89-84.03,1.14-134.26-12.65-33.36-9.15-53.01-32.92-63.13-53.85.11.57.25,1.24.44,2.08,2.81,12.34,25.54,53.01,66.1,60.58,40.56,7.57,68.67,11.23,120.24,23.25h0Z"/>
      <path class="cls-5" d="m254.51,252.79c51.57,12.03,99.56,22.2,122.38-5.04,2.83-3.38,2.94-6.9,1.1-10.38-19.15,19.71-59.33,11.99-112.87-4-63.25-18.89-84.03,1.14-134.26-12.65-33.36-9.15-53.01-32.92-63.13-53.85.11.57.25,1.24.44,2.08,2.81,12.34,25.54,53.01,66.1,60.58,40.56,7.57,68.67,11.23,120.24,23.25h0Z"/>
      <path class="cls-4" d="m133.71,226.23c-38.36-7.16-60.74-43.88-65.44-58.29-.18-.35-.37-.71-.54-1.06.11.57.25,1.24.44,2.08,2.81,12.34,25.54,53.01,66.1,60.58,40.56,7.57,68.67,11.23,120.24,23.25,51.57,12.03,99.56,22.2,122.38-5.04,2.4-2.86,2.75-5.83,1.71-8.78-.08,1.85-.77,3.68-2.27,5.47-22.82,27.24-70.8,17.06-122.38,5.04-51.57-12.03-79.68-15.68-120.24-23.25h0Z"/>
      <path class="cls-5" d="m304.49,245.55s-58.38-11.77-114.36-13.9c-55.98-2.13-44.32-4.67-40.28-7.01,4.05-2.34,15.97-26.54,30.91-59.58,14.95-33.05,27.57-47.79,44.25-20.21,16.68,27.59,39.06,82.11,79.47,100.7h0Z"/>
      <path class="cls-3" d="m299.55,246.14s-28.06-16.4-48.62-42.1c-20.56-25.7-27.74-63.25-35.24-67.5-7.51-4.25-8.97,18.55,13.09,58.91,22.07,40.36,70.77,50.7,70.77,50.7h0Z"/>
      <path class="cls-8" d="m359.76,231.27c1.59-1.34,3.93-1.09,5.22.58.02.02.03.04.05.06,1.26,1.69.98,4.12-.64,5.44-1.61,1.31-3.95,1-5.21-.69-1.24-1.67-.99-4.06.58-5.39Z"/>
      <path class="cls-11" d="m360.89,231.79c.38.03.66.38.63.77,0,.02,0,.03,0,.05-.05.39-.4.66-.78.6-.37-.06-.63-.42-.58-.81.05-.37.37-.64.73-.61Z"/>
      <path class="cls-1" d="m173.33,184.44c-5.74,15.65-16.25,43.55-10.29,41.03,5.96-2.51,29.97-40.34,36.06-75.33,4.08-23.44-20.03,18.64-25.77,34.29Z"/>
      <path class="cls-2" d="m288.37,163.55c1.09-.04,2.01,1.17,2.07,2.7.05,1.53-.78,2.8-1.87,2.84-1.09.04-2.01-1.17-2.07-2.7-.05-1.53.78-2.8,1.87-2.84Zm8.02,33.7c1.09-.04,2.01,1.17,2.07,2.7.05,1.53-.78,2.8-1.87,2.84s-2.01-1.17-2.07-2.7c-.05-1.53.78-2.8,1.87-2.84Zm20.71,32.7c-1.43-.32-2.41-1.48-2.19-2.59.22-1.11,1.57-1.75,3-1.43s2.41,1.48,2.19,2.59c-.22,1.11-1.57,1.75-3,1.43h0Zm33.45,10.3c-1.43-.32-2.41-1.48-2.19-2.59.23-1.11,1.57-1.75,3-1.43,1.43.32,2.41,1.48,2.19,2.59-.22,1.11-1.57,1.75-3,1.43h0Zm-53.67-15.67c-1.43-.32-2.42-1.48-2.19-2.59.22-1.11,1.57-1.75,3-1.43s2.41,1.48,2.19,2.59-1.57,1.75-3,1.43h0Zm37.18.56c-1.43-.32-2.42-1.48-2.19-2.59.22-1.11,1.57-1.75,3-1.43s2.41,1.48,2.19,2.59c-.22,1.11-1.57,1.75-3,1.43h0Zm-43.67,8.67c-1.43-.32-2.41-1.48-2.19-2.59.22-1.11,1.57-1.75,3-1.43s2.42,1.48,2.19,2.59c-.22,1.11-1.57,1.75-3,1.43h0Zm-152.86-17.81c.23-1.11,1.57-1.75,3-1.43s2.41,1.48,2.19,2.59c-.23,1.11-1.57,1.75-3,1.43-1.43-.32-2.42-1.48-2.19-2.59Zm158.72-57.86c.53-.02.97.57,1,1.31.03.74-.38,1.35-.9,1.37-.53.02-.97-.57-1-1.3-.03-.74.38-1.35.9-1.37Zm15.05,13.49c.53-.02.97.57,1,1.3.03.74-.38,1.35-.9,1.37-.52.02-.97-.57-1-1.3-.03-.74.38-1.35.9-1.37Zm11.13,27.43c.52-.02.97.57,1,1.3s-.38,1.35-.9,1.37c-.53.02-.97-.57-1-1.3-.03-.74.38-1.35.9-1.37Zm-59.6-29.7c.53-.02.97.57,1,1.3s-.38,1.35-.9,1.37c-.53.02-.97-.57-1-1.3-.03-.74.38-1.35.9-1.37Zm10.95-6.17c.53-.02.97.57,1,1.31.03.74-.38,1.35-.9,1.37-.52.02-.97-.57-1-1.31-.03-.74.38-1.35.9-1.37Zm3.02-18.97c.52-.02.97.57,1,1.31.03.74-.38,1.35-.9,1.37-.53.02-.97-.57-1-1.31-.03-.74.38-1.35.9-1.37Zm-25.39,28.23c.52-.02.97.57,1,1.3.03.74-.38,1.35-.9,1.37-.52.02-.97-.57-1-1.3-.03-.74.38-1.35.9-1.37Zm34.93,11.77c.53-.02.97.57,1,1.31.03.74-.38,1.35-.9,1.37-.53.02-.97-.57-1-1.3-.03-.74.38-1.35.9-1.37Zm47.24,52.44c.18-.51.87-.72,1.53-.46.66.26,1.06.88.87,1.4-.18.51-.87.72-1.53.46-.66-.26-1.06-.88-.87-1.4Zm-18.5-18.09c.18-.51.87-.72,1.53-.46.66.26,1.06.88.87,1.4-.18.51-.87.72-1.53.46-.66-.26-1.06-.88-.87-1.4Zm4.64,19.51c.18-.51.87-.72,1.53-.46.66.26,1.06.88.87,1.4-.18.51-.87.72-1.53.46-.66-.26-1.06-.88-.87-1.4Zm-44.52-24.11c.18-.51.87-.72,1.53-.46s1.06.88.87,1.4c-.18.51-.87.72-1.53.46-.66-.26-1.06-.88-.87-1.4Zm-148.67,2.21c.18-.51.87-.72,1.53-.46.66.26,1.06.88.87,1.4-.18.51-.87.72-1.53.46-.66-.26-1.06-.88-.87-1.4Zm-13.22-7.54c.18-.51.87-.72,1.53-.46s1.06.88.87,1.4c-.18.51-.87.72-1.53.46-.66-.26-1.06-.88-.87-1.4Zm36.86,7.8c.18-.51.87-.72,1.53-.46s1.06.88.87,1.4c-.18.51-.87.72-1.53.46-.66-.26-1.06-.88-.87-1.4Zm115.84-67.8c1.09-.04,2.01,1.17,2.07,2.7.06,1.53-.78,2.8-1.87,2.84-1.09.04-2.01-1.17-2.07-2.7-.06-1.53.78-2.8,1.87-2.84Zm28.43-12.65c1.09-.04,2.01,1.17,2.07,2.7.05,1.53-.78,2.8-1.87,2.84-1.09.04-2.01-1.17-2.07-2.7-.05-1.53.78-2.8,1.87-2.84Zm-32.11,55.62c1.09-.04,2.01,1.17,2.07,2.7s-.78,2.8-1.87,2.84c-1.09.04-2.01-1.17-2.07-2.7-.05-1.53.78-2.8,1.87-2.84Zm44.18-6.36c1.09-.04,2.01,1.17,2.07,2.7.05,1.53-.78,2.8-1.87,2.84-1.09.04-2.01-1.17-2.07-2.7-.05-1.53.78-2.8,1.87-2.84Zm-31.55-52.35c1.09-.04,2.01,1.17,2.07,2.7.05,1.53-.78,2.8-1.87,2.84-1.09.04-2.01-1.17-2.07-2.7-.05-1.53.78-2.8,1.87-2.84Z"/>
    </g>
    <g class="cls-12">
      <path class="cls-10" d="m92.01,73.54c-22.96-4.94-13.59-21.84,13.3-37.71,26.89-15.87,11.71-36.59,23.49-32.98,11.78,3.61,56.88,74.24,16.48,76.68-15.63.95-30.31-1.06-53.27-5.99Z"/>
      <g class="cls-13">
        <path class="cls-6" d="m103.48,42.17c12.72-7.51,16.02-16.1,17.22-22.68-2.18,5.27-6.46,11.07-15.38,16.34-16.59,9.79-26.48,19.97-26.25,27.5,3.56-6.44,12.13-13.9,24.42-21.15h0Zm23.49-32.98c8.64,2.65,35.15,41.3,32.78,62.71,10.26-18.86-21.36-66.13-30.94-69.06-5.02-1.54-5.15,1.35-5.72,6.38.79-.56,1.98-.62,3.88-.04h0Z"/>
      </g>
      <path class="cls-7" d="m142.99,57.34c-16.43,1.94-29.82-2.31-61.18-.72-.25.01-.5.03-.75.04-4.49,7.8-1.69,14.16,10.95,16.87,22.96,4.94,37.64,6.94,53.27,5.99,13.49-.82,17.42-9.25,16.27-20.24-6.78-1.72-13.57-2.54-18.56-1.95h0Z"/>
      <path class="cls-9" d="m188.24,83.28c8.99-10.73-26.92-24-43.35-22.06-16.43,1.94-29.82-2.31-61.18-.72-31.36,1.59-53.18,4.19-67.32-8.62C2.23,39.06-1.31,27.83.4,35.34c1.71,7.51,15.54,32.25,40.22,36.86,24.68,4.61,41.78,6.83,73.16,14.15,31.38,7.32,60.58,13.51,74.46-3.06h0Z"/>
      <path class="cls-7" d="m143.81,63.35c15.23-1.8,47.17,9.47,44.61,19.67,8.21-10.68-27.23-23.73-43.54-21.8-16.43,1.94-29.82-2.31-61.18-.72-31.36,1.59-53.18,4.19-67.32-8.62C2.23,39.06-1.31,27.83.4,35.34c.16.71.46,1.61.84,2.59,2.41,3.43,6.85,9.55,14.07,16.09,14.14,12.81,35.96,10.21,67.32,8.62,31.36-1.59,44.75,2.66,61.18.72h0Z"/>
      <path class="cls-5" d="m113.78,86.34c31.38,7.32,60.58,13.51,74.46-3.06,1.72-2.05,1.79-4.2.67-6.32-11.65,11.99-36.1,7.3-68.68-2.44-38.48-11.49-51.13.69-81.69-7.69C18.24,61.26,6.28,46.8.13,34.07c.07.34.15.75.27,1.27,1.71,7.51,15.54,32.25,40.22,36.86,24.68,4.61,41.78,6.83,73.16,14.15h0Z"/>
      <path class="cls-5" d="m113.78,86.34c31.38,7.32,60.58,13.51,74.46-3.06,1.72-2.05,1.79-4.2.67-6.32-11.65,11.99-36.1,7.3-68.68-2.44-38.48-11.49-51.13.69-81.69-7.69C18.24,61.26,6.28,46.8.13,34.07c.07.34.15.75.27,1.27,1.71,7.51,15.54,32.25,40.22,36.86,24.68,4.61,41.78,6.83,73.16,14.15h0Z"/>
      <path class="cls-4" d="m40.27,70.18C16.94,65.83,3.31,43.48.46,34.72c-.11-.22-.23-.43-.33-.65.07.34.15.75.27,1.27,1.71,7.51,15.54,32.25,40.22,36.86,24.68,4.61,41.78,6.83,73.16,14.15,31.38,7.32,60.58,13.51,74.46-3.06,1.46-1.74,1.67-3.55,1.04-5.34-.05,1.12-.47,2.24-1.38,3.33-13.88,16.57-43.08,10.38-74.46,3.06s-48.48-9.54-73.16-14.15h0Z"/>
      <path class="cls-5" d="m144.18,81.94s-35.52-7.16-69.58-8.46c-34.06-1.29-26.97-2.84-24.51-4.26,2.46-1.42,9.72-16.15,18.81-36.25,9.09-20.11,16.78-29.08,26.92-12.3,10.15,16.79,23.77,49.96,48.35,61.27h0Z"/>
      <path class="cls-3" d="m141.18,82.3s-17.07-9.98-29.59-25.62c-12.51-15.64-16.88-38.49-21.44-41.07-4.57-2.59-5.46,11.29,7.97,35.84,13.43,24.56,43.06,30.85,43.06,30.85h0Z"/>
      <path class="cls-8" d="m177.82,73.25c.97-.82,2.39-.66,3.18.35,0,.01.02.02.03.04.77,1.03.59,2.51-.39,3.31-.98.8-2.4.61-3.17-.42-.76-1.01-.6-2.47.35-3.28Z"/>
      <path class="cls-11" d="m178.5,73.57c.23.02.4.23.38.47,0,0,0,.02,0,.03-.03.24-.24.4-.47.37-.23-.04-.39-.26-.35-.49.03-.23.23-.39.45-.37Z"/>
      <path class="cls-1" d="m64.38,44.76c-3.49,9.52-9.89,26.5-6.26,24.97s18.23-24.55,21.94-45.83c2.48-14.26-12.18,11.34-15.68,20.87Z"/>
      <path class="cls-2" d="m134.38,32.05c.66-.02,1.22.71,1.26,1.64.03.93-.48,1.7-1.14,1.73-.66.02-1.22-.71-1.26-1.64-.03-.93.48-1.7,1.14-1.73Zm4.88,20.51c.66-.02,1.22.71,1.26,1.64.03.93-.48,1.7-1.14,1.73s-1.22-.71-1.26-1.64c-.03-.93.48-1.7,1.14-1.73Zm12.6,19.89c-.87-.2-1.47-.9-1.33-1.58.14-.68.95-1.06,1.83-.87s1.47.9,1.33,1.58c-.14.68-.96,1.06-1.83.87h0Zm20.35,6.27c-.87-.2-1.47-.9-1.33-1.58.14-.68.96-1.06,1.83-.87.87.2,1.47.9,1.33,1.58-.14.68-.95,1.06-1.83.87h0Zm-32.66-9.53c-.87-.2-1.47-.9-1.33-1.58.14-.68.95-1.06,1.83-.87s1.47.9,1.33,1.58-.96,1.06-1.83.87h0Zm22.62.34c-.87-.2-1.47-.9-1.33-1.58.14-.68.95-1.06,1.83-.87s1.47.9,1.33,1.58c-.14.68-.96,1.06-1.83.87h0Zm-26.57,5.27c-.87-.2-1.47-.9-1.33-1.58.14-.68.95-1.06,1.83-.87s1.47.9,1.33,1.58c-.14.68-.96,1.06-1.83.87h0Zm-93.01-10.83c.14-.68.96-1.06,1.83-.87s1.47.9,1.33,1.58c-.14.68-.96,1.06-1.83.87-.87-.2-1.47-.9-1.33-1.58Zm96.57-35.2c.32-.01.59.34.61.79.02.45-.23.82-.55.83-.32.01-.59-.34-.61-.79-.02-.45.23-.82.55-.83Zm9.16,8.21c.32-.01.59.34.61.79.02.45-.23.82-.55.83-.32.01-.59-.34-.61-.79-.02-.45.23-.82.55-.83Zm6.77,16.69c.32-.01.59.34.61.79s-.23.82-.55.83c-.32.01-.59-.34-.61-.79-.02-.45.23-.82.55-.83Zm-36.26-18.07c.32-.01.59.34.61.79s-.23.82-.55.83c-.32.01-.59-.34-.61-.79-.02-.45.23-.82.55-.83Zm6.66-3.75c.32-.01.59.34.61.79.02.45-.23.82-.55.83-.32.01-.59-.34-.61-.79-.02-.45.23-.82.55-.83Zm1.83-11.54c.32-.01.59.34.61.79.02.45-.23.82-.55.83-.32.01-.59-.34-.61-.79-.02-.45.23-.82.55-.83Zm-15.45,17.18c.32-.01.59.34.61.79.02.45-.23.82-.55.83-.32.01-.59-.34-.61-.79-.02-.45.23-.82.55-.83Zm21.26,7.16c.32-.01.59.34.61.79.02.45-.23.82-.55.83-.32.01-.59-.34-.61-.79-.02-.45.23-.82.55-.83Zm28.74,31.91c.11-.31.53-.44.93-.28.4.16.64.54.53.85-.11.31-.53.44-.93.28-.4-.16-.64-.54-.53-.85Zm-11.25-11.01c.11-.31.53-.44.93-.28.4.16.64.54.53.85-.11.31-.53.44-.93.28-.4-.16-.64-.54-.53-.85Zm2.82,11.87c.11-.31.53-.44.93-.28.4.16.64.54.53.85-.11.31-.53.44-.93.28-.4-.16-.64-.54-.53-.85Zm-27.09-14.67c.11-.31.53-.44.93-.28s.64.54.53.85c-.11.31-.53.44-.93.28-.4-.16-.64-.54-.53-.85Zm-90.46,1.35c.11-.31.53-.44.93-.28.4.16.64.54.53.85-.11.31-.53.44-.93.28-.4-.16-.64-.54-.53-.85Zm-8.04-4.59c.11-.31.53-.44.93-.28s.64.54.53.85c-.11.31-.53.44-.93.28-.4-.16-.64-.54-.53-.85Zm22.43,4.75c.11-.31.53-.44.93-.28s.64.54.53.85c-.11.31-.53.44-.93.28-.4-.16-.64-.54-.53-.85ZM120.78,22.99c.66-.02,1.22.71,1.26,1.64.03.93-.48,1.7-1.14,1.73-.66.02-1.22-.71-1.26-1.64-.03-.93.48-1.7,1.14-1.73Zm17.3-7.7c.66-.02,1.22.71,1.26,1.64.03.93-.48,1.7-1.14,1.73-.66.02-1.22-.71-1.26-1.64-.03-.93.48-1.7,1.14-1.73Zm-19.54,33.84c.66-.02,1.22.71,1.26,1.64s-.48,1.7-1.14,1.73c-.66.02-1.22-.71-1.26-1.64-.03-.93.48-1.7,1.14-1.73Zm26.88-3.87c.66-.02,1.22.71,1.26,1.64.03.93-.48,1.7-1.14,1.73-.66.02-1.22-.71-1.26-1.64-.03-.93.48-1.7,1.14-1.73Zm-19.19-31.85c.66-.02,1.22.71,1.26,1.64.03.93-.48,1.7-1.14,1.73-.66.02-1.22-.71-1.26-1.64-.03-.93.48-1.7,1.14-1.73Z"/>
    </g>
  </g>
</svg>