<svg width="1918" height="1080" viewBox="0 0 1918 1080" fill="none" xmlns="http://www.w3.org/2000/svg">
<mask id="mask0_9_691" style="mask-type:luminance" maskUnits="userSpaceOnUse" x="0" y="0" width="1918" height="1080">
<path d="M1918 0H0V1080H1918V0Z" fill="white"/>
</mask>
<g mask="url(#mask0_9_691)">
<path d="M1918 -1054.86H0.138672V2159.52H1918V-1054.86Z" fill="white"/>
<mask id="mask1_9_691" style="mask-type:luminance" maskUnits="userSpaceOnUse" x="-7" y="-858" width="1925" height="1935">
<path d="M1918 1076.98H0.137175L-6.52539 -857.43H1918V1076.98Z" fill="white"/>
</mask>
<g mask="url(#mask1_9_691)">
<path fill-rule="evenodd" clip-rule="evenodd" d="M413.094 1069.71H1926.34V-470.371C1926.34 -430.861 1675.2 -384.921 1675.2 -384.921H-45.2242V-310.821C-40.3496 -288.361 -38.3518 -265.131 -39.2708 -241.111C-38.3418 -217.101 -40.3496 -193.871 -45.2242 -171.401V80.9189C-44.9644 88.1289 -44.9445 95.4089 -45.2242 102.769L-51.8867 1058.04H319.729C351.913 1058.14 383.028 1062.05 413.104 1069.7L413.094 1069.71Z" fill="url(#paint0_linear_9_691)"/>
<path opacity="0.7" fill-rule="evenodd" clip-rule="evenodd" d="M-22.1199 -300.051L-45.2242 -141.271V80.9194C-44.9644 88.1294 -44.9445 95.4095 -45.2242 102.769L-51.8867 1074.05H1929.6V-481.561C1474.98 -222.171 355.049 -413.871 -22.1199 -300.051Z" fill="url(#paint1_radial_9_691)"/>
<path style="mix-blend-mode:multiply" fill-rule="evenodd" clip-rule="evenodd" d="M-6.7669 -540.171L-40.9488 -334.731V-156.571C-40.6791 -148.991 -40.6491 -141.341 -40.9488 -133.601L-47.6113 1079.89L2034.85 1079.52V-736.061C1556.98 -463.411 389.691 -659.801 -6.7669 -540.171Z" fill="url(#paint2_linear_9_691)"/>
<g opacity="0.8">
<path d="M1704 161.439C1703.8 160.439 1704.46 159.469 1705.48 159.269C1706.5 159.069 1707.49 159.719 1707.7 160.709C1707.9 161.709 1707.24 162.679 1706.22 162.879C1705.2 163.079 1704.21 162.429 1704 161.439Z" fill="#ECF1FF"/>
<path d="M1005.83 79.9583C1005.93 79.1183 1006.71 78.5183 1007.56 78.6183C1008.42 78.7183 1009.03 79.4783 1008.93 80.3083C1008.83 81.1483 1008.05 81.7483 1007.2 81.6483C1006.34 81.5483 1005.73 80.7883 1005.83 79.9583Z" fill="#ECF1FF"/>
<path d="M1353.39 66.6185C1353.49 65.7785 1354.27 65.1785 1355.12 65.2785C1355.98 65.3785 1356.59 66.1385 1356.49 66.9685C1356.39 67.8085 1355.61 68.4085 1354.76 68.3085C1353.9 68.2085 1353.29 67.4485 1353.39 66.6185Z" fill="#ECF1FF"/>
<path d="M913.794 101.888C913.894 101.048 914.673 100.448 915.522 100.548C916.381 100.648 916.99 101.408 916.89 102.238C916.791 103.078 916.011 103.678 915.162 103.578C914.303 103.478 913.694 102.718 913.794 101.888Z" fill="#ECF1FF"/>
<path d="M874.01 1.56821C874.159 0.278208 875.358 -0.641792 876.667 -0.491792C877.975 -0.341792 878.924 0.828208 878.774 2.10821C878.624 3.39821 877.426 4.31821 876.117 4.16821C874.809 4.01821 873.86 2.84821 874.02 1.56821H874.01Z" fill="#ECF1FF"/>
<g style="mix-blend-mode:soft-light">
<path d="M1681.25 48.0086C1680.89 46.2486 1682.06 44.5286 1683.86 44.1686C1685.65 43.8186 1687.41 44.9586 1687.77 46.7286C1688.13 48.4886 1686.96 50.2086 1685.16 50.5586C1683.37 50.9086 1681.61 49.7686 1681.25 48.0086Z" fill="#ECF1FF"/>
</g>
<g style="mix-blend-mode:soft-light">
<path d="M1339.01 72.4974C1339.28 70.2174 1341.39 68.5874 1343.71 68.8574C1346.04 69.1274 1347.71 71.1874 1347.43 73.4674C1347.16 75.7474 1345.05 77.3774 1342.72 77.1074C1340.4 76.8374 1338.73 74.7774 1339.01 72.4974Z" fill="#ECF1FF"/>
</g>
<g style="mix-blend-mode:soft-light">
<path d="M1636.02 159.239C1635.66 157.479 1636.83 155.759 1638.63 155.399C1640.43 155.049 1642.18 156.189 1642.54 157.959C1642.9 159.719 1641.73 161.439 1639.94 161.799C1638.14 162.149 1636.38 161.009 1636.02 159.239Z" fill="#ECF1FF"/>
</g>
<path d="M403.217 104.798C403.117 105.638 402.338 106.238 401.489 106.138C400.63 106.038 400.02 105.278 400.12 104.448C400.22 103.618 400.999 103.008 401.848 103.108C402.707 103.208 403.317 103.968 403.217 104.798Z" fill="#ECF1FF"/>
<path d="M136.015 113.789C136.215 114.789 135.555 115.759 134.536 115.959C133.518 116.159 132.529 115.509 132.319 114.519C132.119 113.519 132.778 112.549 133.797 112.349C134.816 112.149 135.805 112.799 136.015 113.789Z" fill="#ECF1FF"/>
<path d="M768.739 47.5184C768.589 48.8084 767.391 49.7284 766.082 49.5784C764.774 49.4284 763.825 48.2584 763.975 46.9784C764.124 45.6884 765.323 44.7684 766.632 44.9184C767.94 45.0684 768.889 46.2384 768.729 47.5184H768.739Z" fill="#ECF1FF"/>
<path style="mix-blend-mode:screen" opacity="0.2" fill-rule="evenodd" clip-rule="evenodd" d="M140.678 -128.291C114.907 -199.041 35.4554 -235.931 -36.774 -210.691C-37.7929 -210.331 -38.7818 -209.931 -39.7907 -209.551C-40.7096 -196.621 -42.5276 -183.941 -45.2246 -171.481V42.1985C-14.0794 55.4185 22.0503 57.5686 56.5418 45.5186C128.781 20.2786 166.449 -57.5415 140.678 -128.291Z" fill="url(#paint3_radial_9_691)"/>
<path style="mix-blend-mode:screen" opacity="0.5" fill-rule="evenodd" clip-rule="evenodd" d="M1349.18 146.338C1351.96 153.968 1360.54 157.958 1368.33 155.228C1376.12 152.508 1380.19 144.108 1377.41 136.468C1374.63 128.838 1366.05 124.848 1358.26 127.578C1350.47 130.298 1346.4 138.698 1349.18 146.338Z" fill="url(#paint4_radial_9_691)"/>
</g>
</g>
<path d="M1801.13 901.268C1670.85 848.929 1501.52 903.852 1373.56 845.058C1327.31 823.806 1282.7 797.631 1236.49 776.566C1235.55 766.308 1233.48 756.178 1232.52 745.891C1231.19 731.713 1232 717.241 1234.38 703.299C1236.42 691.341 1239.59 679.718 1240.95 667.584C1244.75 633.47 1233.9 598.551 1238.3 564.566C1229.58 571.021 1226.01 585.464 1225.54 598.758C1225.07 612.051 1226.91 625.453 1225.58 638.648C1224.34 650.9 1220.43 662.347 1217.77 674.186C1212.57 697.335 1212.21 722.134 1215.09 745.99C1216 753.417 1217.2 760.836 1217.66 768.322C1215.02 767.222 1212.37 766.141 1209.71 765.09C1209.89 763.665 1210.07 762.241 1210.17 760.806C1211.03 749.91 1209.93 738.964 1207.99 728.442C1206.18 718.646 1202.49 709.096 1201.34 699.192C1199.1 679.816 1200.19 659.203 1205.65 641.114C1206.85 637.174 1208.22 633.343 1209.13 629.246C1212.38 614.449 1208.99 598.443 1205.25 583.902C1201.51 569.36 1197.31 554.131 1198.97 538.784C1199.81 530.924 1202.18 522.887 1200.5 515.321C1199.27 524.921 1193.4 531.72 1190.63 540.612C1185.9 555.831 1190.99 573.281 1192.31 589.885C1193.38 603.297 1191.85 617.131 1187.97 629.383C1184.97 638.864 1180.56 647.471 1178.65 657.542C1176.19 670.502 1178.15 684.365 1181.06 697.119C1183.98 709.872 1187.85 722.281 1189.31 735.555C1190.12 742.826 1190.14 750.263 1189.46 757.554C1186.42 756.503 1183.39 755.441 1180.33 754.469C1180.56 746.884 1180.27 739.328 1178.55 732.136C1176.82 724.914 1173.74 718.42 1171.46 711.473C1167.19 698.416 1165.88 683.668 1167.73 669.637C1170.13 651.559 1177.59 633.136 1172.9 615.883C1169.42 603.13 1159.68 593.501 1159.34 579.932C1159.11 570.775 1163.34 562.601 1165.23 553.787C1166.98 545.662 1166.69 536.77 1164.42 528.87C1162.65 522.671 1159.72 517.169 1157.65 511.136C1152.64 496.486 1152.94 479.744 1153.44 463.621C1153.45 463.297 1153.46 462.982 1153.47 462.658C1150.22 471.982 1146.97 481.306 1143.73 490.63C1143.27 491.937 1142.82 493.244 1142.38 494.561C1142.1 495.406 1141.84 496.26 1141.58 497.115C1140.64 500.269 1139.88 503.502 1139.59 506.872C1139.55 507.451 1139.52 508.031 1139.5 508.611C1139.5 508.67 1139.5 508.729 1139.5 508.778C1139.2 518.171 1142.28 527.308 1143.26 536.701C1144.46 548.148 1142.52 559.909 1140.59 571.532C1140.55 571.836 1140.5 572.141 1140.45 572.436C1139.66 577.211 1138.9 581.966 1138.35 586.663C1138.32 586.879 1138.3 587.085 1138.29 587.301C1137.21 597.117 1137.21 606.687 1140.27 615.746C1141.73 620.039 1143.83 623.94 1145.02 628.381C1145.93 631.771 1146.27 635.318 1146.33 638.923C1146.39 642.519 1146.15 646.174 1145.92 649.751C1145.54 655.371 1145.15 661.02 1144.84 666.68C1144.76 668.222 1144.68 669.765 1144.6 671.317C1144.32 677.075 1144.15 682.842 1144.15 688.59C1144.15 698.641 1144.73 708.644 1146.33 718.469C1146.82 721.505 1147.42 724.511 1148 727.528C1148.19 728.53 1148.38 729.532 1148.56 730.544C1149.3 734.563 1149.94 738.611 1150.2 742.728C1150.28 743.897 1150.33 745.056 1150.37 746.206C1146.62 745.331 1142.85 744.526 1139.08 743.759C1134.85 721.967 1134.56 698.543 1138.47 676.613C1139.78 669.264 1141.55 661.915 1141.37 654.329C1140.92 636.261 1129.56 621.523 1129.54 603.444C1129.54 597.981 1130.59 592.646 1131.41 587.311C1134.9 564.389 1133.95 540.071 1128.71 517.876C1126.14 506.99 1123.16 499.974 1126.27 488.282C1125.51 489.363 1124.82 490.513 1124.17 491.711C1124.14 491.77 1124.11 491.819 1124.07 491.878C1123.75 492.468 1123.45 493.067 1123.16 493.676C1123.11 493.765 1123.07 493.863 1123.02 493.951C1122.75 494.541 1122.48 495.14 1122.23 495.759C1122.18 495.887 1122.12 496.005 1122.07 496.123C1121.83 496.712 1121.6 497.321 1121.38 497.931C1121.32 498.078 1121.28 498.225 1121.22 498.383C1121 498.982 1120.81 499.581 1120.62 500.2C1120.56 500.377 1120.51 500.554 1120.45 500.731C1120.27 501.33 1120.09 501.93 1119.93 502.539C1119.87 502.735 1119.82 502.942 1119.76 503.138C1119.61 503.737 1119.45 504.337 1119.32 504.936C1119.27 505.162 1119.21 505.388 1119.16 505.614C1119.02 506.204 1118.9 506.803 1118.77 507.402C1118.72 507.648 1118.68 507.903 1118.63 508.149C1118.51 508.738 1118.4 509.318 1118.31 509.908C1118.26 510.183 1118.22 510.458 1118.17 510.733C1118.07 511.303 1117.99 511.883 1117.91 512.452C1117.86 512.757 1117.82 513.062 1117.78 513.376C1117.71 513.926 1117.64 514.486 1117.57 515.046C1117.53 515.39 1117.49 515.724 1117.45 516.068C1117.39 516.599 1117.34 517.119 1117.29 517.65C1117.25 518.033 1117.22 518.416 1117.19 518.799C1117.15 519.291 1117.1 519.782 1117.06 520.273C1117.04 520.715 1117.01 521.158 1116.98 521.59C1116.95 522.032 1116.92 522.474 1116.89 522.906C1116.86 523.447 1116.83 523.997 1116.81 524.537C1116.79 524.872 1116.77 525.206 1116.76 525.54C1116.73 526.424 1116.71 527.308 1116.68 528.183C1116.64 529.991 1116.61 531.798 1116.61 533.616C1116.59 537.242 1116.63 540.877 1116.65 544.502C1116.65 545.406 1116.65 546.32 1116.65 547.224C1116.65 555.379 1116.47 563.505 1115.26 571.443C1113.46 583.302 1109.4 594.523 1109.16 606.667C1109.14 607.443 1109.14 608.219 1109.16 608.996C1109.23 612.867 1109.68 616.669 1110.37 620.413C1110.51 621.159 1110.66 621.906 1110.82 622.653C1112.24 629.334 1114.39 635.809 1116.55 642.067C1119.03 649.26 1121.64 656.796 1121.76 664.784C1121.76 665.314 1121.76 665.855 1121.75 666.385C1121.57 672.929 1119.63 679.06 1118.22 685.279C1117.33 689.199 1116.66 693.218 1116.18 697.286C1116.13 697.688 1116.08 698.091 1116.05 698.504C1114.69 711.326 1115.36 724.61 1118 737.009C1118.21 738.011 1118.45 739.004 1118.69 739.996C1113.88 739.21 1109.06 738.503 1104.23 737.825C1105.59 729.866 1107.69 722.124 1108.59 714.048C1111.14 691.282 1103.89 667.987 1106.83 645.31C1101.01 649.613 1098.63 659.252 1098.31 668.124C1097.99 676.996 1099.22 685.937 1098.34 694.741C1097.51 702.915 1094.9 710.55 1093.13 718.459C1091.84 724.197 1091 730.092 1090.55 736.046C1087.75 735.702 1084.96 735.368 1082.15 735.054C1080.67 722.153 1081.4 708.437 1085.04 696.391C1085.83 693.758 1086.75 691.204 1087.35 688.472C1089.52 678.598 1087.27 667.918 1084.76 658.22C1082.27 648.523 1079.47 638.354 1080.57 628.116C1081.14 622.879 1082.72 617.504 1081.59 612.464C1080.77 618.87 1076.86 623.399 1075 629.344C1071.85 639.503 1075.25 651.146 1076.13 662.219C1076.85 671.17 1075.83 680.396 1073.24 688.571C1071.23 694.898 1068.29 700.646 1067.02 707.357C1065.39 715.934 1066.67 725.111 1068.59 733.57C1065.66 733.266 1062.73 732.961 1059.8 732.676C1059.02 726.987 1058.97 721.112 1059.73 715.423C1061.33 703.358 1066.31 691.066 1063.18 679.551C1060.86 671.042 1054.36 664.617 1054.13 655.558C1053.98 649.446 1056.8 643.993 1058.06 638.118C1059.23 632.694 1059.04 626.76 1057.53 621.493C1056.34 617.357 1054.38 613.692 1053.01 609.654C1049.66 599.878 1049.86 588.706 1050.19 577.948C1050.19 577.732 1050.2 577.525 1050.21 577.309C1048.05 583.529 1045.87 589.748 1043.71 595.977C1043.41 596.842 1043.1 597.716 1042.82 598.6C1042.63 599.161 1042.46 599.73 1042.28 600.31C1041.65 602.413 1041.15 604.574 1040.96 606.824C1040.93 607.207 1040.91 607.6 1040.89 607.984C1040.89 608.023 1040.89 608.062 1040.89 608.102C1040.68 614.37 1042.75 620.472 1043.4 626.74C1044.2 634.384 1042.91 642.225 1041.63 649.977C1041.6 650.183 1041.56 650.38 1041.53 650.586C1041 653.769 1040.49 656.943 1040.13 660.077C1040.11 660.225 1040.1 660.362 1040.08 660.5C1039.36 667.053 1039.36 673.44 1041.41 679.472C1042.38 682.341 1043.78 684.935 1044.57 687.902C1045.18 690.162 1045.41 692.53 1045.45 694.937C1045.49 697.345 1045.33 699.781 1045.18 702.169C1044.92 705.922 1044.66 709.695 1044.46 713.468C1044.4 714.499 1044.34 715.531 1044.29 716.563C1044.11 720.404 1043.98 724.256 1043.99 728.088C1043.99 729.11 1044.02 730.122 1044.04 731.134C1042.31 730.967 1040.59 730.8 1038.86 730.623C1039.17 727.076 1039.59 723.549 1040.21 720.09C1041.08 715.187 1042.27 710.284 1042.14 705.224C1041.84 693.169 1034.26 683.334 1034.25 671.268C1034.25 667.623 1034.95 664.066 1035.49 660.5C1037.82 645.212 1037.19 628.98 1033.7 614.164C1031.98 606.903 1029.99 602.216 1032.08 594.415C1031.57 595.132 1031.11 595.908 1030.67 596.704C1030.65 596.743 1030.63 596.773 1030.61 596.812C1030.4 597.205 1030.2 597.608 1030.01 598.011C1029.98 598.07 1029.95 598.129 1029.92 598.198C1029.74 598.591 1029.56 598.993 1029.39 599.406C1029.35 599.485 1029.32 599.573 1029.28 599.652C1029.12 600.045 1028.97 600.448 1028.82 600.86C1028.78 600.959 1028.74 601.057 1028.71 601.155C1028.57 601.558 1028.44 601.961 1028.3 602.364C1028.26 602.481 1028.23 602.599 1028.2 602.717C1028.07 603.12 1027.95 603.523 1027.85 603.926C1027.81 604.063 1027.77 604.191 1027.74 604.329C1027.63 604.722 1027.54 605.124 1027.44 605.527C1027.4 605.675 1027.37 605.832 1027.33 605.979C1027.25 606.372 1027.16 606.775 1027.08 607.168C1027.05 607.335 1027.01 607.502 1026.98 607.669C1026.91 608.062 1026.84 608.455 1026.77 608.848C1026.74 609.035 1026.71 609.222 1026.68 609.398C1026.62 609.782 1026.56 610.165 1026.51 610.548C1026.48 610.754 1026.45 610.961 1026.42 611.157C1026.37 611.531 1026.32 611.894 1026.28 612.267C1026.25 612.493 1026.23 612.719 1026.2 612.955C1026.16 613.309 1026.12 613.663 1026.08 614.016C1026.05 614.272 1026.03 614.527 1026.01 614.783C1025.98 615.107 1025.95 615.441 1025.93 615.765C1025.91 616.06 1025.89 616.355 1025.87 616.65C1025.85 616.944 1025.83 617.239 1025.81 617.534C1025.79 617.897 1025.77 618.261 1025.76 618.624C1025.75 618.85 1025.74 619.076 1025.73 619.293C1025.71 619.882 1025.69 620.472 1025.67 621.061C1025.64 622.27 1025.63 623.478 1025.62 624.687C1025.62 627.104 1025.64 629.53 1025.65 631.947C1025.65 632.557 1025.65 633.156 1025.65 633.765C1025.65 639.208 1025.54 644.632 1024.73 649.928C1023.53 657.837 1020.82 665.324 1020.66 673.43C1020.65 673.951 1020.65 674.471 1020.66 674.982C1020.71 677.566 1021.01 680.101 1021.47 682.597C1021.57 683.098 1021.67 683.589 1021.77 684.09C1022.72 688.551 1024.16 692.864 1025.6 697.05C1027.26 701.845 1028.99 706.875 1029.07 712.21C1029.07 712.564 1029.07 712.918 1029.07 713.281C1028.94 717.653 1027.65 721.741 1026.71 725.887C1026.45 727.027 1026.24 728.176 1026.03 729.336C986.552 725.337 947.274 720.365 909.336 708.162C887.961 701.284 867.342 692.216 847.122 681.968C847.49 681.771 847.675 681.261 847.529 680.838C846.666 678.451 844.065 678.598 841.901 679.276C837.021 676.751 832.169 674.157 827.328 671.524C832.102 670.099 837.807 671.347 841.921 673.725C845.268 675.66 848.169 678.274 851.236 680.622C854.108 682.813 857.164 684.749 860.366 686.389C866.741 689.651 873.61 691.754 880.684 692.648C881.547 692.756 881.78 691.548 881.159 691.115C878.85 689.484 876.172 688.757 873.455 688.246C875.939 686.763 878.471 685.377 881.101 684.179C881.897 683.815 881.528 682.675 880.761 682.597C877.598 682.302 874.726 683.746 871.68 684.326C868.516 684.925 865.266 684.395 862.297 683.206C856.3 680.818 851.866 675.847 848.005 670.806C846.976 669.47 845.841 668.134 844.968 666.69C844.055 665.186 844.803 663.899 846.122 662.976C848.014 661.649 850.353 661.414 852.584 661.738C857.484 662.455 861.482 665.52 865.838 667.613C870.011 669.618 874.94 671.072 879.267 668.674C879.946 668.301 879.791 667.073 878.928 667.092C876.017 667.181 873.154 666.66 870.457 665.579C872.301 664.253 874.28 663.162 876.385 662.317C876.948 662.091 876.977 661.158 876.453 660.873C873.775 659.439 871.126 661.089 868.623 662.131C866.003 663.221 862.85 663.654 860.172 662.534C857.727 661.512 856.203 659.006 856.427 656.324C856.679 653.376 859.337 651.962 862.045 652.64C865.276 653.445 867.265 656.422 869.002 659.055C869.215 659.38 869.516 659.566 869.914 659.488C871.243 659.242 871.728 657.896 871.485 656.658C871.175 655.047 869.807 654.526 868.856 653.386C867.488 651.755 869.535 650.488 870.952 650.085C872.397 649.672 874.028 649.741 875.512 649.888C881.945 650.527 887.883 654.624 890.765 660.48C890.92 660.794 891.328 661.011 891.677 660.912C894.006 660.264 893.676 657.601 892.696 655.892C892.133 654.919 888.349 651.706 890.047 650.566C890.92 649.977 892.735 650.753 893.695 650.91C894.898 651.117 896.131 651.235 897.353 651.156C899.439 651.009 901.448 650.213 902.447 648.248C902.661 647.825 902.573 647.108 901.991 647C898.653 646.391 895.49 647.412 892.191 647.805C889.436 648.14 885.234 647.57 884.284 644.386C883.245 640.898 886.913 638.363 889.756 637.646C891.493 637.214 893.278 637.096 895.054 636.949C897.198 636.772 899.352 636.595 901.496 636.418C902.282 636.349 902.7 635.376 901.972 634.875C899.895 633.451 897.237 633.018 894.84 633.804C893.695 634.178 892.725 635.042 891.561 635.357C890.348 635.681 889.591 634.925 889.329 633.785C888.757 631.25 890.319 629.295 891.493 627.251C892.58 625.355 893.327 623.35 892.55 621.199C892.424 620.855 891.958 620.698 891.638 620.766C886.389 621.847 885.273 627.703 884.022 632.085C882.712 636.693 879.587 640.731 875.017 642.382C872.068 643.453 867.478 643.05 865.654 640.112C862.986 635.809 868.681 632.35 872.009 631.309C875.842 630.1 880.111 629.324 882.605 625.817C882.983 625.276 882.527 624.579 881.945 624.529C878.928 624.303 875.939 624.805 873.135 625.925C872.165 622.78 874.891 619.568 876.589 617.16C878.578 614.331 880.907 610.912 879.752 607.276C879.597 606.775 879.083 606.451 878.569 606.716C874.794 608.671 872.64 612.267 871.078 616.129C869.564 619.872 868.575 623.851 866.741 627.457C865.955 629.01 865.052 630.444 863.675 631.535C862.52 632.458 860.9 633.284 859.396 632.891C855.718 631.918 857.61 626.887 858.843 624.736C860.444 621.926 862.307 618.782 860.997 615.47C860.832 615.068 860.25 614.901 859.891 615.107C857.979 616.207 856.436 617.779 855.311 619.695C851.003 627.035 852.807 637.057 846.743 643.512C845.54 644.789 844.065 645.772 842.338 646.116C841.203 646.341 839.815 646.499 839.689 645.005C839.602 643.924 839.738 642.775 839.893 641.704C840.242 639.277 841.048 636.88 842.212 634.728C843.405 632.527 845.297 630.827 846.462 628.646C847.364 626.956 847.597 624.726 846.326 623.144C845.317 621.886 843.57 621.582 842.202 622.397C839.165 624.215 839.602 628.302 837.642 630.867C836.749 632.036 835.304 632.488 834.44 631.034C833.722 629.825 833.664 628.263 833.314 626.917C833.004 625.728 832.519 624.48 831.354 623.91C829.996 623.242 828.512 623.773 827.629 624.952C825.29 628.076 827.163 632.498 828.288 635.72C828.948 637.607 829.637 639.572 829.695 641.596C829.763 644.023 828.851 646.263 827.59 648.277C826.27 650.37 824.64 652.256 823.068 654.162C821.322 656.285 819.585 658.407 817.838 660.529C816.887 661.689 815.723 663.192 814.404 664.4C811.153 662.563 807.903 660.716 804.662 658.849C804.623 656.599 805.069 654.271 805.545 652.335C806.748 647.452 808.98 642.863 812.055 638.904C815.189 634.866 819.333 631.83 822.864 628.184C824.601 626.396 826.163 624.451 827.425 622.289C828.754 620 829.783 617.553 830.966 615.186C834.721 607.65 841.678 599.956 850.789 600.782C854.612 601.126 858.532 603.012 860.677 606.323C861.86 608.151 863.422 614.763 866.828 612.533C867.119 612.346 867.381 611.983 867.255 611.609C866.537 609.428 865.829 607.247 865.111 605.066C867.41 606.245 870.108 606.421 872.63 605.488C873.028 605.341 873.203 604.712 872.989 604.368C869.758 599.151 862.695 600.153 858.94 595.692C857.795 594.326 856.757 592.204 857.901 590.524C859.017 588.873 861.045 588.942 862.733 589.492C864.917 590.19 866.731 591.585 868.536 592.951C871 594.818 873.475 596.684 875.939 598.561C877.598 599.819 879.471 601.293 881.673 601.175C883.42 601.076 884.74 599.485 884.303 597.706C883.818 595.722 881.722 594.611 880.063 593.806C877.327 592.479 874.6 591.153 871.864 589.827C872.281 588.589 874.28 588.441 875.396 588.5C877.734 588.628 881.606 589.365 882.566 586.329C883.391 583.715 880.693 582.094 878.481 581.966C875.541 581.799 873.048 584.757 870.137 584.118C867.003 583.43 866.838 578.773 868.798 576.847C871.156 574.519 874.93 574.725 877.744 575.943C879.578 576.739 881.217 577.958 882.76 579.215C884.031 580.247 885.302 581.721 886.894 582.212C888.068 582.575 889.416 582.173 889.979 581.003C890.522 579.873 890.154 578.498 889.523 577.496C888.698 576.169 887.447 575.609 886.001 575.216C884.507 574.804 882.401 574.578 881.654 572.976C881.12 571.846 881.431 570.304 882.324 569.449C883.284 568.515 884.846 568.653 886.049 568.26C888.504 567.445 888.951 564.684 886.884 563.131C884.429 561.274 881.848 562.817 879.937 564.674C878.811 565.764 877.744 566.825 876.347 567.572C875.085 568.24 873.727 568.673 872.339 569.007C869.545 569.685 866.673 569.979 863.917 570.844C861.259 571.679 859.143 573.104 857.135 575.03C855.417 576.67 853.341 579.215 850.77 579.264C847.228 579.323 846.18 574.853 847.422 572.161C848.975 568.8 852.691 566.855 855.883 565.42C859.046 563.996 862.423 563.053 865.858 562.62C869.128 562.198 872.407 562.64 875.667 562.276C878.287 561.982 881.247 560.921 881.771 557.953C881.858 557.482 881.606 556.833 881.014 556.872C878.045 557.069 875.066 557.266 872.097 557.462C870.68 557.55 869.254 557.649 867.837 557.737C866.624 557.816 865.101 558.15 863.917 557.757C862.772 557.374 862.472 556.106 862.695 555.025C862.918 553.935 863.723 553.1 864.558 552.431C866.537 550.85 868.934 549.69 871.097 548.393C873.3 547.077 875.59 545.849 877.715 544.404C879.102 543.461 880.47 542.007 879.937 540.179C879.481 538.627 877.812 538.028 876.356 538.057C874.493 538.106 873.145 539.197 871.592 540.101C870.7 540.621 869.72 541.073 868.672 540.838C867.643 540.602 866.838 539.777 866.343 538.863C865.285 536.908 865.673 534.49 865.955 532.388C866.013 531.946 865.576 531.533 865.159 531.523C863.306 531.464 861.744 532.496 860.715 534.009C859.532 535.748 859.289 537.851 859.367 539.914C859.444 542.046 859.735 544.149 859.434 546.281C859.143 548.334 858.396 550.339 857.319 552.097C855.35 555.32 851.74 558.592 847.743 558.425C845.831 558.346 844.201 557.226 843.638 555.33C843.085 553.434 844.104 551.911 845.957 551.449C847.791 550.997 849.712 551.341 851.546 550.879C853.302 550.437 854.962 549.415 855.398 547.529C855.485 547.165 855.379 546.782 855.059 546.576C853.186 545.377 851.158 544.473 849.033 543.864C851.362 539.963 853.991 536.259 856.941 532.81C857.193 532.516 857.29 532.191 857.125 531.808C856.514 530.393 854.67 530.285 853.545 531.13C852.274 532.083 851.866 533.813 850.256 534.343C847.975 535.09 844.676 533.626 844.453 530.993C844.424 530.649 844.259 530.236 843.871 530.158C841.882 529.794 840.417 531.219 839.874 533.086C839.204 535.394 840.339 537.399 841.067 539.531C841.484 540.779 841.688 542.066 841.174 543.314C840.65 544.601 839.563 545.613 838.35 546.222C835.866 547.47 832.936 546.939 830.413 546.104C829.715 545.878 829.142 546.654 829.433 547.283C830.248 549.052 831.005 550.84 831.675 552.667C834.382 559.987 835.876 567.808 836.07 575.619C836.128 577.997 836.701 585.975 832.237 584.128C828.657 582.644 828.317 577.741 829.171 574.499C829.744 572.357 830.704 570.363 831.626 568.358C832.286 566.934 833.411 565.126 833.052 563.465C832.771 562.168 831.578 561.392 830.297 561.618C828.987 561.854 827.774 562.886 827.114 564.025C826.357 565.332 826.173 567.219 824.931 568.201C823.65 569.213 822.36 567.818 821.496 566.934C820.652 566.069 819.779 565.057 818.576 564.713C817.363 564.359 815.995 564.9 815.374 566.02C813.792 568.899 816.587 572.396 817.906 574.754C819.643 577.83 821.128 581.072 822.214 584.432C824.368 591.045 825.125 598.316 822.932 605.026C821.952 608.013 820.39 610.98 817.722 612.739C814.995 614.547 811.629 614.016 810.057 610.951C806.864 604.741 811.687 597.51 808.669 591.241C808.397 590.681 807.951 589.728 807.408 589.394C806.923 589.099 806.166 589.266 805.671 589.453C804.39 589.925 803.585 591.163 803.139 592.411C802.556 594.032 802.741 595.682 802.702 597.362C802.663 599.052 802.275 601.155 800.344 601.548C797.404 602.138 794.891 599.239 793.038 597.412C790.942 595.348 788.157 593.128 785.062 594.15C784.732 594.258 784.393 594.543 784.412 594.936C784.47 596.095 784.693 597.195 785.12 598.266C787.168 603.366 792.485 605.822 796.958 608.259C799.694 609.742 802.469 611.452 804.225 614.124C805.525 616.109 806.166 618.457 806.273 620.815C806.496 625.728 804.837 630.611 802.702 634.964C800.296 639.857 797.317 644.465 793.882 648.68C793.154 649.574 792.397 650.439 791.631 651.293C777.339 642.932 763.085 634.463 748.754 626.249C750.394 624.274 752.237 622.476 754.294 620.953C762.319 614.999 777.183 618.546 780.948 609.31C781.278 608.504 781.608 607.502 781.026 606.942C778.435 604.466 775.058 604.741 771.798 605.449C769.421 605.969 765.074 607.817 763.027 605.645C761.251 603.759 762.513 600.526 762.969 598.365C763.464 596.036 763.764 593.413 762.445 591.29C760.368 587.94 754.964 587.459 753.751 591.801C753.111 594.071 753.722 596.783 754.042 599.072C754.411 601.764 754.896 604.446 754.915 607.168C754.954 611.796 752.926 616.433 747.793 616.689C742.855 616.934 738.838 613.417 737.567 608.73C736.266 603.906 737.411 598.591 739.856 594.336C744.621 586.034 754.333 580.954 763.774 581.809C768.412 582.232 773.458 585.366 778.095 583.342C781.336 581.927 783.917 577.732 781.753 574.381C780.696 572.73 778.881 572.053 777.038 571.768C775.272 571.493 772.429 571.886 771.022 570.579C769.431 569.095 770.809 566.187 771.08 564.389C771.41 562.198 771.08 559.545 769.276 558.061C765.773 555.192 762.066 559.24 761.921 562.846C761.824 565.214 763.134 567.494 762.852 569.842C762.464 572.986 759.194 574.538 756.555 575.393C753.78 576.287 749.782 577.407 746.93 576.435C743.835 575.374 743.912 571.502 745.407 569.134C747.24 566.226 750.452 565.224 753.033 563.249C754.925 561.795 756.293 559.358 754.906 557.049C753.819 555.241 751.383 554.622 749.433 555.045C746.328 555.723 744.999 558.847 742.311 560.134C738.255 562.09 739.604 556.312 738.789 554.161C738.003 552.088 736.16 550.466 733.889 551.125C733.123 551.351 732.715 551.95 732.628 552.716C731.658 561.431 736.237 570.49 733.161 578.999C732.424 581.023 731.124 583.106 729.183 584.128C728.339 584.58 727.088 584.973 726.127 584.668C724.827 584.265 724.545 582.988 724.254 581.799C723.003 576.837 721.867 571.836 720.674 566.855C720.635 566.688 720.557 566.55 720.47 566.423C720.509 566.285 720.509 566.138 720.548 566C721.421 562.768 722.789 559.702 724.633 556.922C726.466 554.161 729.309 551.645 729.659 548.148C729.921 545.475 728.611 542.429 725.904 541.653C723.488 540.956 721.324 542.37 720.053 544.375C718.559 546.723 718.549 549.386 717.879 551.989C717.249 554.446 715.599 556.637 713.232 554.603C710.059 551.881 707.953 545.2 702.665 546.821C701.841 547.077 701.181 547.931 701.443 548.835C703.383 555.517 709.661 559.388 713.698 564.664C714.765 566.059 715.764 567.72 716.57 569.498C715.997 573.664 716.123 577.849 717.016 581.917C716.618 582.634 716.123 583.312 715.512 583.951C713.329 586.201 709.622 587.37 706.692 585.965C704.334 584.835 703.063 582.202 702.035 579.923C700.075 575.599 698.386 570.107 693.137 569.036C692.157 568.84 690.983 569.449 691.032 570.608C691.342 578.468 696.368 584.708 702.064 589.591C708.361 594.995 716.347 599.347 720.296 607.011C720.965 608.308 721.586 609.762 721.858 611.246C714.629 607.384 707.352 603.651 700.026 600.084C700.308 599.426 700.57 598.758 700.764 598.06C701.588 595.044 700.065 590.888 696.262 592.126C694.67 592.646 693.535 594.1 692.856 595.584C692.739 595.84 692.642 596.154 692.565 596.508C692.012 596.252 691.459 596.007 690.915 595.751C690.624 593.462 690.488 591.153 690.595 588.824C690.76 585.189 691.682 580.984 688.946 578.046C687.636 576.641 685.734 575.973 684.016 576.248C686.112 575.462 688.092 574.332 689.275 572.367C690.605 570.156 690.906 567.081 689.605 564.792C687.995 561.932 684.744 561.667 681.93 562.807C674.993 565.607 672.965 573.615 667.231 577.81C664.591 579.746 660.186 580.296 658.479 576.749C657.062 573.811 661.419 571.591 662.893 569.606C666.823 564.33 660.836 558.926 655.442 561.088C652.366 562.316 650.668 565.558 649.29 568.378C647.854 571.306 645.273 576.14 641.402 573.536C638.054 571.276 637.821 566.884 639.461 563.534C641.266 559.84 644.613 557.049 647.621 554.387C653.191 549.464 659.507 544.1 667.153 543.304C671.209 542.881 675.575 543.854 678.903 540.857C681.377 538.627 682.027 534.844 679.592 532.319C677.244 529.882 673.508 529.647 670.529 530.894C667.182 532.29 663.34 536.662 659.468 535.846C659.73 533.164 659.992 530.482 660.264 527.799C660.536 525.048 661.234 522.022 660.759 519.271C659.924 514.476 655.325 514.182 652.696 517.788C649.678 521.934 650.483 527.279 650.939 532.044C651.221 535.011 651.483 538.421 649.435 540.838C647.718 542.871 644.953 543.5 643.4 540.936C640.926 536.858 643.1 531.386 641.547 526.984C640.315 523.486 636.783 521.158 633.086 522.022C631.621 522.366 630.34 523.211 629.651 524.606C628.516 526.886 629.525 529.244 630.282 531.454C632.164 537.006 632.95 543.019 631.689 548.806C629.535 558.69 621.268 566.531 611.643 568.771C613.399 563.907 617.038 559.967 619.978 555.762C622.947 551.508 625.042 546.87 625.906 541.702C627.556 531.897 624.975 521.207 618.745 513.464C615.961 510.006 611.633 505.476 606.811 505.82C600.426 506.282 602.988 513.111 605.598 516.402C607.345 518.593 609.644 520.47 610.624 523.191C611.876 526.689 609.033 528.32 606.054 527.357C600.426 525.52 600.242 517.817 595.594 514.869C593.799 513.73 591.374 513.857 590.19 515.822C589.016 517.778 590.015 520.372 591.209 522.061C592.761 524.253 595.032 525.884 596.642 528.055C598.476 530.531 599.815 533.459 599.252 536.623C598.796 539.207 597.021 541.496 594.226 541.368C591.121 541.221 589.666 538.912 589.268 536.063C588.919 533.577 588.783 531.179 587.114 529.165C585.678 527.436 583.359 526.385 581.176 527.259C580.361 527.583 579.662 528.183 579.08 528.841C578.372 529.647 577.625 531.671 576.276 531.435C574.927 531.199 573.734 529.087 572.928 528.104C571.551 526.404 570.173 524.714 568.795 523.015C566.631 520.352 564.477 517.67 562.304 515.017C560.577 512.904 558.578 510.428 555.638 510.33C550.36 510.153 549.448 516.53 551.563 520.205C553.086 522.857 555.415 525.098 557.375 527.406C559.83 530.285 562.275 533.164 564.73 536.053C569.086 541.172 574.985 546.585 576.955 553.237C577.964 556.647 576.965 561.707 574.17 563.927C571.57 563.672 568.97 563.446 566.369 563.229C562.119 559.918 560.965 553.149 560.043 548.236C558.995 542.665 557.608 537.035 553.173 533.203C552.582 532.692 551.437 532.535 550.806 533.095C548.079 535.532 548.157 539.079 549.496 542.302C550.292 544.227 552.164 546.625 551.796 548.845C551.437 550.967 548.933 550.948 547.371 550.358C543.703 548.973 542.132 544.149 539.522 541.486C536.931 538.843 533.166 537.222 529.605 538.725C528.713 539.108 528.509 540.16 528.47 541.25C528.14 550.329 541.229 555.919 548.72 561.589C548.924 561.746 549.137 561.893 549.351 562.05C468.856 557.737 386.294 567.444 311.727 535.434C250.134 508.994 200.921 456.723 142.742 422.217C104.659 399.629 43.3172 372.983 -10 372V1080H1945C1893.72 1035.56 1951.16 934.674 1890.01 910.111L1801.13 901.268ZM867.983 654.948C868.478 655.4 869.118 655.784 869.506 656.344C869.652 656.56 869.855 657.081 869.807 657.454C869.147 656.491 868.458 655.528 867.701 654.644C867.798 654.742 867.876 654.85 867.983 654.948ZM685.938 570.245L685.802 566.305C686.898 567.071 686.491 569.282 685.938 570.245ZM680.737 578.478C679.805 580.109 679.825 582.202 680.223 583.99C680.291 584.285 680.397 584.59 680.494 584.884C679.922 584.128 679.233 583.479 678.311 583.155C675.245 582.074 672.819 585.12 673.072 588.028C670.898 587.134 668.715 586.25 666.532 585.395C667.376 584.904 668.191 584.334 668.967 583.637C669.889 584.766 672.121 584.688 672.422 582.811C673.052 578.871 677.855 578.026 681.018 577.201C681.465 577.083 681.93 576.936 682.386 576.798C681.746 577.172 681.174 577.722 680.737 578.488V578.478Z" fill="url(#paint5_linear_9_691)"/>
</g>
<defs>
<linearGradient id="paint0_linear_9_691" x1="937.23" y1="-523.231" x2="937.23" y2="835.059" gradientUnits="userSpaceOnUse">
<stop stop-color="#521EEF"/>
<stop offset="0.06" stop-color="#4E1EE8"/>
<stop offset="0.14" stop-color="#431ED5"/>
<stop offset="0.23" stop-color="#321FB7"/>
<stop offset="0.33" stop-color="#1A1F8D"/>
<stop offset="0.36" stop-color="#142082"/>
<stop offset="0.44" stop-color="#201F98"/>
<stop offset="0.61" stop-color="#361EBE"/>
<stop offset="0.76" stop-color="#461EDA"/>
<stop offset="0.9" stop-color="#501EEB"/>
<stop offset="1" stop-color="#541EF2"/>
</linearGradient>
<radialGradient id="paint1_radial_9_691" cx="0" cy="0" r="1" gradientUnits="userSpaceOnUse" gradientTransform="translate(1027.13 -262.019) scale(732.135 719.979)">
<stop offset="0.31" stop-color="#46E7C4"/>
<stop offset="0.62" stop-color="#4DBBDC"/>
<stop offset="0.86" stop-color="#529FEC"/>
<stop offset="1" stop-color="#5495F2"/>
</radialGradient>
<linearGradient id="paint2_linear_9_691" x1="885.897" y1="-515.871" x2="1101.84" y2="859.796" gradientUnits="userSpaceOnUse">
<stop stop-color="white"/>
<stop offset="0.96" stop-color="#001959"/>
</linearGradient>
<radialGradient id="paint3_radial_9_691" cx="0" cy="0" r="1" gradientUnits="userSpaceOnUse" gradientTransform="translate(70.3572 -94.8125) rotate(160.73) scale(138.4 136.069)">
<stop offset="0.46" stop-color="#868A95"/>
<stop offset="0.69" stop-color="#848893"/>
<stop offset="0.77" stop-color="#7E818C"/>
<stop offset="0.82" stop-color="#737780"/>
<stop offset="0.87" stop-color="#64676F"/>
<stop offset="0.91" stop-color="#505259"/>
<stop offset="0.94" stop-color="#38393E"/>
<stop offset="0.98" stop-color="#1B1C1E"/>
<stop offset="1"/>
</radialGradient>
<radialGradient id="paint4_radial_9_691" cx="0" cy="0" r="1" gradientUnits="userSpaceOnUse" gradientTransform="translate(1413.51 131.334) rotate(160.73) scale(14.9351 14.6835)">
<stop offset="0.02" stop-color="#D4FEFF"/>
<stop offset="0.33" stop-color="#94B1B2"/>
<stop offset="1"/>
</radialGradient>
<linearGradient id="paint5_linear_9_691" x1="967.359" y1="370.497" x2="967.359" y2="1063.33" gradientUnits="userSpaceOnUse">
<stop stop-color="#00002E"/>
<stop offset="0.85" stop-color="#000027"/>
<stop offset="1" stop-color="#000026"/>
</linearGradient>
</defs>
</svg>
